<?xml version="1.0" encoding="UTF-8"?><svg xmlns="http://www.w3.org/2000/svg" width="503.94" height="504.8" viewBox="0 0 503.94 504.8"><defs><style>.d{fill:#9cb75e;}.e{fill:#9dd08b;}.f{fill:#316dcd;}.g{fill:#bcf2b1;}.h{fill:#e0f89e;}.i{fill:#25316c;}.j{fill:#3e81d1;}.k{fill:#868a2c;}.l{fill:#2849b0;}.m{fill:#2a51ba;}.n{fill:#484c11;}.o{fill:#263c98;}.p{fill:#2e5dc5;}.q{fill:#4b6fb9;}.r{fill:#4895d4;}</style></defs><g id="a"/><g id="b"><g id="c"><g><path class="i" d="M503,270.84c-4.02,60.97-26.71,114.42-69.34,157.75-62.41,63.43-139.69,85.24-226.83,72.93-13.39-1.89-27.47-4.92-39.65-12.31l.29-.37c35.28,6.42,69.83,3.63,104.37-8-5.3-4.1-8.12-9.2-10.57-14.56,1.42-2.64,3.94-3.15,6.59-3.39,2.21,1.34,4.42,2.69,6.63,4.03,3.56,13.16,14.23,7.4,19.51,4.76,27.25-13.63,54.61-28.27,73.67-52.66,9.77-12.5,26.32-21.5,26.24-40.6,3.23-3.13,6.47-6.27,9.7-9.4,9.07-14.17,10.94-32.31,25.08-43.88,3.03-2.48,2.89-8.84,4.21-13.41,1.93-8.29,2.9-16.95,5.94-24.82,15.46-39.96,15.25-81.72,7.66-122.12-8.07-42.98-24.8-83.9-55.44-117.22,5.84,.6,11.62,.85,16.53,5.06,22.8,19.56,43.82,40.62,58.43,67.26-4.62,5.26-2.05,9.54,1.58,14.04,14.07,17.49,16.6,37.9,13.37,59.11-3.91,25.65,2.69,49.19,12.17,72.44,1.89,4.62,4.67,7.03,9.84,5.36Z"/><path class="p" d="M12.06,327.08C-19.79,238.91,13.63,119.62,86.54,61.27c17.52,1.57,7.71,14.75,9.73,22.9-1.39,3.25-2.78,6.51-4.17,9.76-3.86-.14-7.37,.48-10.48,3.21-35.13,30.74-50.56,70.82-49.54,116,.72,32.17,9.87,63.89,26.01,92.04,16.77,29.26,38.09,54.31,74.31,61.69,26.56,5.41,52.23-.33,78.1-3.33,12.62-1.46,23.15-10.61,36.37-12.34,5.58-.73,11.61-5.8,12.39-13.38,6.24,8.15,10.19,18.59,21.63,21.53-3.47,9.41-11.93,13.26-19.7,18.09-22.44,13.93-47.94,17.57-73.03,23.57-55.68,13.32-135.4-9.37-161.94-64.69-2.86-5.96-7.88-8.53-14.15-9.24Z"/><path class="m" d="M12.06,327.08c6.27,.7,11.29,3.27,14.15,9.24,26.54,55.32,106.27,78.01,161.94,64.69,25.08-6,50.59-9.64,73.03-23.57,7.77-4.83,16.23-8.68,19.7-18.09,7.11,2.6,6.97,8.58,6.34,14.43-1.06,9.82-2.52,19.6-3.82,29.4-1.32,11.34-9.41,19.99-12.28,30.71-7.37-2.82-14.7-2.13-21.56,1.21-25,12.19-53.24,9.93-79.25,17.8-5.69,1.72-12.64-.46-18.98-1.19-26-2.99-49.62-16.41-76.1-17.39-31.38-29.67-52-65.68-63.18-107.24Z"/><path class="m" d="M259.33,1.71c1.79-.08,3.57-.17,5.35-.25,.13,6.43,4.17,7.95,9.68,7.87,10.07-.14,18.48,4.81,27.4,8.62,16.9,7.22,24.77,24.99,40.4,33.52,.1,4.71,3.22,7.68,5.91,11.1,25.64,32.53,41.14,67.82,28.98,110.25-1.1,3.83,.08,7.37-.08,10.92-1.35,29.85,7.01,59.65,.53,89.5-8.39-6.18-19.21-3.99-28.18-8.2-2.07-7.46-13.6-6.43-13.9-15.47,14.58-3.43,18.01-10.49,10.04-25.84-9.41-18.14-13.34-36.62-6.06-55.89,6.57-17.4-.43-34-.97-50.94-.2-6.27-4.58-10.9-12.12-10-1.13-1.16-2.25-2.33-3.38-3.49,1.06-5.27,2.11-10.54,3.17-15.8l-.37-1.04c3.06,1.56,6.12,3.13,9.57,4.88,1.78-14.86-8.61-17.02-19.02-19.14-16.82-10.24-33.32-21.32-54.38-20.1-4.65-9.46-11.95-12.53-21.89-8.91-4.73,1.72-9.39,3.7-10.98-3.69,2.47-.86,5.42-1.14,7.34-2.69,14.15-11.39,13.71-10.94,29.98,.77,4.03,2.9,14.46,3.66,16.58,1.05,4.58-5.63-1.76-10.58-6.71-13.86-2.59-1.72-6.04-2.13-9.08-3.21-6.44-2.3-13.61-3.28-17.94-9.78,3.44-3.45,6.78-6.8,10.13-10.16Z"/><path class="o" d="M391.09,47.56c30.64,33.32,47.37,74.23,55.44,117.22,7.59,40.4,7.8,82.16-7.66,122.12-3.04,7.86-4.02,16.52-5.94,24.81-4.17-2.51-8.35-5.01-12.52-7.51-5.86-5.34-16.25-.2-20.64-8.92,9.52-5.25,9.56-14.8,10.56-23.77,.59-5.33,.44-10.74,.74-16.1,2.54-45.17,10.61-90.81-4.64-135.02-10.66-30.89-22.91-61.64-51.23-81.88,0-.69,.02-1.37,.02-2.06,.35-1.24,.69-2.48,1.04-3.71l11.27-.18c8.98,3.24,16.63,8.57,23.58,15Z"/><path class="d" d="M261.89,52.2c21.06-1.22,37.56,9.86,54.38,20.1-4.68,9.94,5.74,9.88,9.46,14.26l.38,1.04c-5.81-.99-11.27-.21-16.21,3.21-4.88-1.01-9.63-1.15-14.32,.95,2.89,7.22,16.03,8.79,7.82,19.1-7.8,.79-17.2-.55-16.17,12.06-2.75,.28-5.5,.56-8.25,.84-8.31-7.82-26.27-11.47-12.2-28.92,1.55-1.92,.74-5.51-2.53-6.42-1.87-.52-4.06,.06-6.1,.14,1.04,9.77-13.39,7.95-12.96,17.27-4.39-.14-8.78-.28-13.17-.42-1.17-7.3-7.01-9.7-12.8-12.15,7.59-12.86,.83-17.55-11.03-18.55-7.39-.63-14.89,.04-22.32-.33-3.31-.16-8.78,2.17-9.38-2.92-.95-8.17-5.1-6.26-9.95-4.66-5.63,1.86-13.8,.85-11.74,10.92-9.59-.64-19.1-.93-26.62,6.67-10.61-4.66-21.28,.07-31.92-.23-2.02-8.15,7.79-21.33-9.73-22.9,16.07-8.77,27.83-24.05,45.64-30.2,9.65,1.83,19.3,3.64,28.96,5.46-1.84,6.19-1.5,8.48,6.86,8.75,12.72,.42,25.98-2.09,38.32,3.4-2.61,6.61-5.99,13.25,4.9,15.93,14.91,3.67,30.52,6.29,38.32,25.22,4.84-14.71,8.61-26.18,12.38-37.64Z"/><path class="l" d="M75.24,434.32c26.47,.98,50.09,14.4,76.1,17.39,6.33,.73,13.29,2.91,18.98,1.19,26.01-7.88,54.24-5.61,79.25-17.8,6.86-3.35,14.2-4.03,21.56-1.21-6.98,9,4.98,20.13-3.25,28.99-2.65,.24-5.17,.75-6.59,3.39-2.12,.17-4.34,.02-6.36,.56-31.41,8.33-62.82,16.37-95.8,10.43-3.58-.65-4.16,2.42-4.7,5.08v.12l-4.98,.27-1.25-.26c-1.13-6.47-4.22-8.27-9.81-4.12-23.81-10.71-45.25-24.82-63.12-44.03Z"/><path class="e" d="M206.3,48.69c-12.34-5.49-25.59-2.98-38.32-3.4-8.36-.28-8.7-2.56-6.86-8.76,5.67-5.41,13.25-3.01,20.42-4.79-4.14-3.51-11.95-7.35-10.13-10.41,2.72-4.6,9.65-3.83,16.04-2.23,11.55,2.89,23.5,4.63,35.67,2.57,12.24-2.07,18.08-7.66,12.99-20.46,7.78-1.71,15.52-1.69,23.22,.49-3.34,3.36-6.69,6.71-10.12,10.16,4.33,6.5,11.5,7.48,17.94,9.78,3.03,1.08,6.49,1.49,9.08,3.21,4.95,3.29,11.29,8.23,6.71,13.86-2.12,2.61-12.56,1.84-16.58-1.05-16.27-11.71-15.83-12.16-29.98-.77-1.92,1.55-4.87,1.82-7.34,2.68-7,4.47-17.35,.58-22.72,9.11Z"/><path class="n" d="M503,270.84c-5.17,1.67-7.95-.74-9.84-5.36-9.48-23.24-16.08-46.79-12.17-72.44,3.23-21.21,.7-41.63-13.37-59.11-3.62-4.51-6.2-8.78-1.58-14.04,28.22,46.43,41.73,96.46,36.95,150.95Z"/><path class="q" d="M236.11,1.22c5.09,12.8-.75,18.38-12.99,20.46-12.16,2.06-24.12,.31-35.67-2.57-6.39-1.6-13.31-2.37-16.04,2.23-1.81,3.06,5.99,6.91,10.13,10.41-7.17,1.78-14.75-.61-20.42,4.79-9.65-1.81-19.3-3.63-28.95-5.46,20.79-12.3,42.08-22.54,67.24-22.31,7.96,.07,15.53-5.47,24.06-4.43,0-.02,.74,1.13,.74,1.13l.7-1.2c3.31-2.55,7.09-3.41,11.19-3.04Z"/><path class="e" d="M342.15,51.47c-15.63-8.53-23.49-26.29-40.4-33.52-8.91-3.81-17.32-8.76-27.4-8.62-5.51,.08-9.55-1.44-9.68-7.87,16.12,.57,32.28,.8,47.36,7.73,10.94,12.96,26.08,19.37,40.88,26.31-.25,1.15-.48,2.3-.72,3.45-.85,.77-1.14,1.71-.87,2.83-.31,.38-.97,.9-.88,1.11,.32,.78,.9,1.46,1.37,2.18,1.04,8.57-4.71,6.89-9.67,6.39Z"/><path class="q" d="M352.93,35.5c-14.81-6.94-29.95-13.35-40.89-26.31,8.42,.58,16.67,1.78,23.78,6.91,4.06,8.92,15.96,8.22,20.43,16.63-.35,1.24-.69,2.48-1.03,3.71-.78-.28-1.54-.59-2.29-.94Z"/><path class="i" d="M356.25,32.73c-4.48-8.41-16.37-7.71-20.43-16.63,11.42,3.84,24.55,4.39,31.7,16.45-3.76,.06-7.51,.12-11.27,.18Z"/><path class="o" d="M138.36,478.35c5.59-4.14,8.68-2.34,9.81,4.12-4.22,.89-7.16-1.27-9.81-4.12Z"/><path class="i" d="M167.19,489.2c-3.68,.25-7.05-.38-9.56-3.41l.16-.21c3.42,.51,7.33-.42,9.69,3.25l-.29,.37Z"/><path class="e" d="M224.91,4.26l-.7,1.2s-.75-1.15-.74-1.13c0,.02,.7-.47,.7-.47l.75,.4Z"/><path class="o" d="M149.43,482.73c1.66-.09,3.33-.18,4.99-.27,.03,.98,.06,1.96,.09,2.94-2.36,.39-3.96-.68-5.08-2.67Z"/><path class="i" d="M154.5,485.4c-.02-.98-.05-1.96-.09-2.94v-.12c1.12,1.08,2.24,2.16,3.37,3.23l-.16,.21-1.61,.16-1.52-.55Z"/><path class="k" d="M267.87,462.88c8.23-8.86-3.73-19.99,3.25-28.99,2.87-10.72,10.96-19.37,12.28-30.7,.49,6.99,.98,13.97,1.62,23.08,8.68-11.7,14.29-23.07,19.17-32.88,9.26-18.59,22.03-29.22,39.85-36.41,3.31-1.33,8.02-1.41,7.18-6.87-.67-4.38-4.21-5.39-7.93-6.82-16.57-6.39-19-14.98-8.58-28.73,.92-1.21,2.85-2.96,2.54-3.62-8.84-18.74,10.14-30.08,12.06-45.89,8.96,4.22,19.79,2.02,28.17,8.2,2.93,11.87,6.77,22.83,22.26,22.04,4.4,8.72,14.78,3.58,20.64,8.92-2.05,6.02-2.58,13.36-6.44,17.8-10.4,11.97-6.58,28.81-15.66,41.1-2.21,2.99,1.72,5.48,5.33,5.91-3.23,3.13-6.47,6.27-9.7,9.4-8.31,.56-16.94,2.83-21.37,9.49-15.13,22.72-36.9,36.19-60.55,48.09-4.94,2.49-10.24,6.34-14.82,10.94-7,7.02-10.21,19.13-22.69,19.98-2.21-1.34-4.42-2.69-6.63-4.03Z"/><path class="o" d="M274.5,466.91c12.48-.85,15.7-12.96,22.69-19.98,4.58-4.59,9.88-8.45,14.82-10.94,23.64-11.9,45.41-25.37,60.55-48.09,4.44-6.66,13.07-8.93,21.37-9.49,.07,19.1-16.48,28.1-26.25,40.6-19.06,24.38-46.43,39.02-73.67,52.66-5.29,2.65-15.95,8.4-19.51-4.76Z"/><path class="o" d="M157.79,485.57c-1.12-1.08-2.25-2.16-3.37-3.23,.54-2.66,1.12-5.72,4.7-5.08,32.98,5.94,64.39-2.11,95.8-10.43,2.03-.54,4.24-.39,6.36-.56,2.45,5.36,5.26,10.45,10.57,14.56-34.54,11.63-69.09,14.42-104.37,8-2.36-3.67-6.27-2.74-9.7-3.25Z"/><path class="n" d="M403.63,369.01c-3.61-.43-7.54-2.93-5.33-5.91,9.09-12.29,5.26-29.13,15.66-41.1,3.86-4.44,4.39-11.78,6.44-17.8,4.18,2.5,8.35,5,12.52,7.51-1.32,4.58-1.18,10.94-4.21,13.42-14.14,11.58-16.02,29.72-25.08,43.88Z"/><path class="f" d="M259.25,337.82c-.79,7.57-6.81,12.65-12.39,13.38-13.22,1.73-23.75,10.88-36.37,12.34-25.88,3-51.54,8.74-78.1,3.33-36.22-7.38-57.54-32.43-74.31-61.69-16.14-28.15-25.29-59.87-26.01-92.04-1.01-45.19,14.41-85.26,49.54-116,3.11-2.72,6.62-3.35,10.48-3.21,5.91,5.26,3.06,10.71,.05,15.87-3.57,6.13-6.49,12.38-6.61,19.62-.41,3.61-.83,7.21-1.24,10.82-2.83,9.91-13.39,13.81-17.05,23.96-12,33.28-14.97,66.58,.7,98.74,16.72,34.31,34.41,69.42,82.31,65.61,1.48-.12,3.09,.88,4.59,1.48,14.37,5.75,27.97,1.92,42.49-1,17.92-3.61,30.76-16.4,47.47-21.38,1.22,2.28,2.44,4.57,3.66,6.85-.1,9.48,8.5,14.93,10.77,23.32Z"/><path class="d" d="M259.25,337.82c-2.27-8.38-10.87-13.84-10.77-23.32,3.44-.19,6.61,.86,8.5,3.64,9.28,13.59,14.93,6.68,20.24-3.34,6.67-12.59,14.17-24.97,13.28-39.97-.42-7.09,3.88-10.25,9.39-10.57,11.74-.7,9.31-6.89,6.39-13.8,9.71-.29,19.43-.59,29.14-.88,.31,9.04,11.83,8.01,13.9,15.47-1.91,15.8-20.9,27.15-12.06,45.89,.31,.66-1.62,2.4-2.54,3.62-10.42,13.75-8,22.34,8.58,28.73,3.72,1.43,7.26,2.44,7.93,6.82,.84,5.46-3.87,5.54-7.18,6.87-17.82,7.19-30.59,17.81-39.85,36.41-4.88,9.81-10.49,21.18-19.17,32.88-.64-9.11-1.13-16.09-1.62-23.08,1.29-9.81,2.76-19.59,3.81-29.41,.63-5.84,.77-11.82-6.34-14.43-11.43-2.93-15.38-13.38-21.63-21.53Z"/><path class="e" d="M85.54,129.42c.12-7.24,3.04-13.49,6.61-19.62,3.01-5.16,5.85-10.61-.05-15.87,1.39-3.25,2.78-6.51,4.17-9.76,10.64,.3,21.31-4.43,31.92,.23-.73,3.6-3.07,7.86-1.91,10.68,5.03,12.27-2.86,14.48-11.17,17.37-3.37-4.51,3.64-11.27-3.44-12.94-5.94-1.4-6.85,5.25-9.75,8.71-5.75,6.85-8.33,16.14-16.38,21.19Z"/><path class="l" d="M399.77,295.28c-15.49,.79-19.33-10.17-22.26-22.04,6.47-29.85-1.89-59.64-.54-89.49,.16-3.55-1.02-7.08,.08-10.92,12.16-42.43-3.34-77.73-28.98-110.25-2.69-3.42-5.81-6.4-5.91-11.1,4.96,.49,10.71,2.18,9.67-6.39-.16-1.1-.33-2.2-.5-3.3-.27-1.12,.02-2.06,.87-2.83,1-.12,2-.27,3-.45,28.33,20.24,40.58,50.99,51.23,81.88,15.25,44.21,7.18,89.85,4.64,135.02-.3,5.37-.15,10.77-.74,16.1-1,8.97-1.03,18.52-10.56,23.77Z"/><path class="p" d="M335.42,249.57c-9.71,.29-19.43,.59-29.14,.9-.97-1.35-1.95-2.72-2.93-4.09,7.11-8.52-2.61-23.56,13.84-29.31-23.6-10.05-18.15-31.39-23.98-48.22-5.31-15.34,8.44-32.43-5.99-45.92-1.03-12.61,8.37-11.27,16.17-12.07,9.28,8.13,15.57-.93,22.91-3.97,7.54-.89,11.92,3.74,12.12,10,.54,16.94,7.54,33.54,.97,50.94-7.28,19.27-3.35,37.75,6.06,55.89,7.97,15.35,4.53,22.41-10.04,25.84Z"/><path class="p" d="M206.3,48.69c5.37-8.53,15.72-4.63,22.72-9.11,1.59,7.39,6.25,5.42,10.98,3.7,9.94-3.62,17.24-.55,21.89,8.91-3.77,11.47-7.54,22.94-12.38,37.65-7.8-18.93-23.41-21.55-38.32-25.22-10.89-2.68-7.51-9.33-4.9-15.93Z"/><path class="q" d="M326.31,106.89c-7.34,3.05-13.64,12.1-22.91,3.97,8.22-10.31-4.93-11.88-7.82-19.1,4.69-2.1,9.43-1.97,14.32-.95-1.13,9.86,2.85,14.43,13.04,12.59,1.13,1.16,2.25,2.33,3.38,3.49Z"/><path class="k" d="M325.73,86.56c-3.71-4.38-14.14-4.32-9.46-14.26,10.41,2.13,20.8,4.28,19.02,19.14-3.44-1.76-6.5-3.32-9.57-4.88Z"/><path class="p" d="M322.93,103.4c-10.18,1.84-14.16-2.74-13.04-12.59,4.94-3.42,10.4-4.21,16.21-3.21-1.06,5.27-2.12,10.54-3.17,15.8Z"/><path class="i" d="M355.19,38.51c-.99,.18-1.99,.33-3,.45,.24-1.15,.48-2.3,.72-3.45,.75,.35,1.51,.66,2.29,.94,0,.7-.01,1.38-.02,2.07Z"/><path class="h" d="M85.54,129.42c8.04-5.06,10.63-14.34,16.38-21.19,2.91-3.46,3.82-10.11,9.75-8.71,7.08,1.67,.06,8.42,3.44,12.94,8.32-2.89,16.21-5.1,11.17-17.37-1.16-2.82,1.18-7.08,1.91-10.68,7.52-7.6,17.02-7.31,26.61-6.67,15.16-2.78,25.21,7.99,30.94,17.58,16.04,26.83,22.83,30.63,47.33,17.59,1.93,.98,3.87,1.96,5.8,2.94,1.08,14.95-6.2,19.1-19.82,15.64-1.82-.46-4.1,.91-6.17,1.44-5.04,.27-9.13-1.63-13.24-4.59-5.36-3.86-12.04-1.53-13.9,3.09-5.16,12.87-15.08,25.17-8.42,40.59-7.06,4.28-8.05,11.9-10.36,18.8-2.88,1.75-10.3-9.63-9.4,3.35,.32,4.68-1.81,8.51-6.94,9.35-4.37,.71-6.54-2.42-8.96-5.5-5.28-6.73-10.65-13.44-16.58-19.57-5.27-5.44-5.58,.03-6.41,3.62-4.56-1.8-5.97-9.58-12.94-6.82-6,.36-6.17-4.23-7.57-8.3-3.28-9.54-6.69-19.11-13.84-26.69,.41-3.61,.83-7.21,1.24-10.82Z"/><path class="f" d="M287.22,122.93c14.43,13.49,.68,30.59,5.99,45.92,5.83,16.83,.38,38.17,23.98,48.22-16.45,5.75-6.74,20.79-13.84,29.31-4.3-.41-8.6-.81-12.9-1.21-.3-.77-.71-1.48-1.22-2.14-.74-.45-1.41-.99-2.02-1.6l-3.07,1.01c-1.2,.53-2.4,1.06-3.6,1.58,2.19-8.53-4.74-19.63,7.5-25.45,2.13-1.01-.35-3.46-.98-5.35-6.55-19.67-15.14-38.83-15.95-60.01-.13-3.5-1.04-6.27-4.64-7.5-.21-2.19-.41-4.38-.62-6.57,.8-.42,1.41-1.02,1.83-1.81,3.76-4.51,7.53-9.03,11.29-13.54l8.24-.85Z"/><path class="e" d="M265.85,139.13c.21,2.19,.41,4.38,.61,6.57-6.94,4.38-13.87,8.76-20.8,13.14-11.75-3.06-19.23-13.99-31.39-16.65-5.69-1.24-.44-6.19-1.41-9.27,2.07-.52,4.35-1.9,6.17-1.44,13.63,3.46,20.9-.7,19.82-15.64,1.34-3.81,9.13-3.57,6.31-10.01-.43-9.32,14-7.49,12.96-17.27,2.04-.08,4.23-.67,6.1-.14,3.27,.91,4.08,4.5,2.53,6.42-14.07,17.45,3.89,21.11,12.2,28.92-3.76,4.52-7.52,9.03-11.28,13.54-1.4-.19-2.31,.12-1.83,1.82Z"/><path class="e" d="M233.07,112.91c-24.5,13.04-31.3,9.24-47.33-17.59-5.73-9.58-15.78-20.36-30.94-17.58-2.06-10.07,6.11-9.06,11.74-10.92,4.85-1.6,9.01-3.51,9.95,4.66,.59,5.09,6.07,2.75,9.38,2.92,7.43,.37,14.92-.3,22.32,.33,11.86,1.01,18.62,5.69,11.03,18.56-4.3,2.35-10.37,2.44-12.16,11.57,10.27-6.96,15.51,8.99,25.43,2.54l.59,5.51Z"/><path class="r" d="M232.48,107.39c-9.92,6.45-15.16-9.5-25.43-2.54,1.78-9.14,7.86-9.23,12.16-11.57,5.79,2.44,11.62,4.84,12.8,12.13,.22,.63,.38,1.3,.47,1.98Z"/><path class="j" d="M232.48,107.39c-.09-.68-.25-1.35-.47-1.98,4.39,.16,8.78,.3,13.17,.43,2.82,6.43-4.97,6.19-6.31,10.01-1.94-.98-3.87-1.96-5.8-2.94-.19-1.84-.39-3.67-.58-5.51Z"/><path class="q" d="M351.33,41.79c.17,1.1,.33,2.2,.5,3.3-.48-.72-1.05-1.4-1.38-2.18-.09-.21,.57-.73,.88-1.11Z"/><path class="j" d="M84.3,140.24c7.15,7.58,10.56,17.15,13.84,26.69,1.4,4.08,1.57,8.67,7.57,8.3-11.52,5.71-17.53,15.33-19.05,27.76-5.24,42.99,16.41,72.36,50.98,94.73,22.81,14.76,45.22,1.37,67.66-.7,9.29-.85,10.49-12.63,16.18-18.74,5.47-5.87,10.43-12.37,17.71-16.3,6.91,1.09,15.62-7.88,20.66,3.75,4.05,9.37-1.28,15.53-7.79,20.45-7.6,5.76-7.17,13.54-7.25,21.46-16.71,4.98-29.55,17.77-47.47,21.38-14.53,2.92-28.13,6.75-42.49,1-1.5-.6-3.1-1.6-4.59-1.48-47.9,3.81-65.59-31.3-82.31-65.61-15.67-32.16-12.71-65.46-.7-98.74,3.66-10.15,14.22-14.05,17.05-23.96Z"/><path class="e" d="M244.82,307.66c.08-7.92-.35-15.7,7.25-21.46,6.5-4.93,11.84-11.09,7.79-20.45-5.03-11.63-13.75-2.66-20.66-3.75-2.72-4.08-11.06-2.84-9.97-10.51-.17-.69-.14-1.38,.06-2.07,2.82,1.23,5.64,2.46,8.47,3.68,15.7,3.75,30.21,1.91,42.78-9.06,1.2-.53,2.4-1.06,3.6-1.59,1.02-.33,2.05-.67,3.07-1.01,.61,.61,1.28,1.15,2,1.59-.81,1.42-.37,2.12,1.24,2.15,4.3,.4,8.6,.81,12.9,1.21,.98,1.37,1.96,2.73,2.93,4.09,2.92,6.89,5.34,13.09-6.39,13.79-5.51,.33-9.81,3.49-9.39,10.57,.9,15-6.6,27.38-13.28,39.97-5.31,10.03-10.96,16.93-20.24,3.34-1.9-2.78-5.07-3.83-8.5-3.64-1.22-2.28-2.44-4.56-3.67-6.85Z"/><path class="r" d="M229.23,251.47c-1.09,7.68,7.25,6.44,9.97,10.52-7.28,3.93-12.24,10.43-17.71,16.3-5.69,6.11-6.89,17.88-16.18,18.74-22.43,2.06-44.85,15.45-67.66,.7-34.57-22.37-56.22-51.74-50.98-94.73,1.52-12.43,7.53-22.05,19.05-27.76,6.97-2.76,8.37,5.02,12.94,6.82,1.02,8.82,12.76,11.7,12.73,19.74-.04,12.31,8.65,14.48,16.57,18.7,16.11,8.59,34.89,7.22,51.7,15.02,10.3,4.78,18.17,13.73,29.57,15.95Z"/><path class="r" d="M237.75,253.09c-2.82-1.23-5.64-2.46-8.46-3.69,2.87-12.26,6.01-24.51-14.16-22.58-5.39,.51-7.72-3.61-7.29-8.42,.35-3.9,4.58-8.41-1.7-10.74-4.88-1.81-7.46,2.7-10.93,5.13-13.43,9.39-24.47,5.07-27.72-10.71-.75-3.63-.39-7.49-.54-11.25,2.31-6.9,3.3-14.52,10.36-18.8,8.04-.39,16.27,.18,24.08-1.35,26.15-5.13,26.57-5.22,40.59,16.94-3.34,16,21.05,7.03,19.57,22.63-10.76-5.88-13.66-1.18-13.23,8.9,.52,12.46-3.23,23.82-10.56,33.95Z"/><path class="g" d="M166.94,190.82c.15,3.76-.21,7.62,.54,11.25,3.25,15.78,14.28,20.11,27.72,10.71,3.47-2.43,6.05-6.94,10.93-5.13,6.28,2.34,2.06,6.85,1.7,10.74-.43,4.81,1.89,8.93,7.29,8.42,20.17-1.92,17.03,10.32,14.16,22.58-.21,.69-.23,1.38-.06,2.08-11.4-2.23-19.27-11.18-29.57-15.96-16.82-7.8-35.59-6.43-51.7-15.02-7.92-4.22-16.61-6.4-16.57-18.7,.03-8.04-11.71-10.93-12.73-19.74,.83-3.59,1.14-9.06,6.41-3.62,5.94,6.13,11.31,12.85,16.58,19.57,2.42,3.09,4.59,6.21,8.96,5.5,5.13-.83,7.27-4.67,6.94-9.35-.9-12.98,6.52-1.6,9.4-3.35Z"/><path class="g" d="M241.98,187.62c-14.02-22.16-14.44-22.07-40.59-16.94-7.81,1.53-16.04,.96-24.08,1.35-6.66-15.42,3.27-27.72,8.42-40.59,1.85-4.63,8.53-6.95,13.9-3.09,4.11,2.96,8.2,4.85,13.24,4.59,.97,3.09-4.28,8.03,1.41,9.27,12.16,2.66,19.64,13.59,31.39,16.65-5.32,5.52-3.11,11.1-.93,17.26,1.3,3.68,7.5,10.03-2.75,11.51Z"/><path class="j" d="M241.98,187.62c10.26-1.48,4.05-7.83,2.75-11.51-2.17-6.16-4.39-11.74,.93-17.26,6.93-4.38,13.86-8.76,20.8-13.14,3.61,1.24,4.52,4.01,4.65,7.5,.81,21.18,9.4,40.34,15.95,60.01,.63,1.89,3.11,4.34,.98,5.35-12.24,5.82-5.31,16.91-7.5,25.45-12.58,10.99-27.09,12.83-42.79,9.07,7.33-10.13,11.08-21.49,10.56-33.95-.42-10.08,2.47-14.78,13.23-8.9,1.49-15.6-22.91-6.63-19.57-22.63Zm18.16,28.46c-.9-.39-2-1.28-2.64-1.02-.65,.26-.85,1.65-1.24,2.55,.89,.39,2,1.28,2.63,1.03,.65-.27,.85-1.65,1.25-2.55Z"/><path class="j" d="M290.45,245.17c-1.61-.03-2.05-.73-1.24-2.15,.53,.66,.94,1.38,1.24,2.15Z"/><path class="j" d="M287.21,241.43c-1.03,.34-2.05,.67-3.07,1.01,1.03-.34,2.05-.67,3.07-1.01Z"/><path class="j" d="M265.85,139.13c-.48-1.7,.44-2.01,1.83-1.82-.43,.8-1.04,1.4-1.83,1.82Z"/><path class="r" d="M260.14,216.08c-.4,.9-.6,2.28-1.25,2.55-.63,.26-1.73-.64-2.63-1.03,.4-.9,.59-2.29,1.24-2.55,.64-.26,1.74,.63,2.64,1.03Z"/></g></g></g></svg>