<?xml version="1.0" encoding="UTF-8"?><svg xmlns="http://www.w3.org/2000/svg" width="402.77" height="474.45" viewBox="0 0 402.77 474.45"><defs><style>.d{fill:#f7be24;}.e{fill:#fac62d;}.f{fill:#fdca30;}.g{fill:#e4a818;}.h{fill:#e9ad1c;}.i{fill:#f2bc2e;}.j{fill:#edb41f;}.k{fill:#fbecb4;}.l{fill:#935a0b;}.m{fill:#b5700a;}.n{fill:#34240b;}.o{fill:#bf800d;}.p{fill:#cd8f11;}.q{fill:#d59a1d;}.r{fill:#dfa318;}</style></defs><g id="a"/><g id="b"><g id="c"><g><path class="g" d="M132.44,12.8c4.95,.02,9.9,.04,14.85,.06-.59,6.87,7.15,5.42,9.42,9.43-1.1,2.04-2.2,4.08-3.3,6.12-2.4,1.31-2.94,3.54-2.97,6.02-2.02,.27-5.13,1.57-4.03,3.09,13.1,18.01-1.33,31.03-7.69,45.59-1.99,4.56-2.82,9.62-4.62,14.27-2.93,7.57,2.04,7.18,6.83,7.16-2.2,11.12,9.43,11.45,13.79,17.49,3.5,4.86,8.93,11.13,14.32,3.93,3.97-5.31,7.52-14.06-3.34-18.34-4.16-7.32-11.36-4.76-17.57-5.42l-3.93-.72c2.27-7.05-4.9-16.55,5.57-21.48,1.7,3.19-1.62,9.44,3.01,9.69,4.17,.22,8.98-3.19,10.11-8.74,3.7-2.05,7.4-4.11,11.1-6.16,1.97,4.5-5.89,7.05-2.35,11.86,1.09,.94,2.19,1.89,3.28,2.83,.04,2.48,.51,4.77,2.86,6.2,3.24,10.81,12.23,4.08,18.37,6.02-1.51,10.45-4.34,21.02,3.02,30.6,5.05,7.71,11.3,8.02,18.42,2.99,9.5,1.52,6.98-11.97,15.14-12.12,2.01,2.68,2.11,7.31,6.46,7.51,2.34,.11,2.52-2.6,2.73-4.59,3.95,.1,6.07,2.07,6.2,6.07-5.33,3.87,.75,8-.27,11.97-.86,.18-1.72,.36-2.58,.53-5.11,1.29-12.38-9.6-15.52,2.76-1.34,2.38-3.59,2.96-6.07,3.09-6.12-4.24-11.82-6.29-15.33,2.97-1.98,0-3.97,0-5.95-.01-.45-5.72-3.47-8.8-9.26-9.04-4-4.4-5.63-22.24-13.97-2.34-1.09,2.61-4.51,.38-6.84-.16-12.5-2.9-12.76,2.13-5.62,11.41-15.53-1.69-21.27-14.79-31.53-21.44,0-7.13,0-14.25,0-22.24-5.02,1.81-8.55,3.08-12.08,4.36-.02-4.55-.14-9.38-4.94-11.51-7.45-3.3-7.75-9.45-7.41-16.1,10.86-8.78,9.39-25.72,22.12-33.38,1.6-.96,2.1-4.05-.27-5.02-2.14-.88-5.27-1.31-7.21-.38-8.31,3.96-15.34,9.68-20.57,17.41-7.99-9.73-22.33-3.49-30.72-12.22,2.19-3.93,3.2-9.04,9.19-9.16,4.75,5.07,10.11,1.83,15.52,1.65,15.26-.5,23.94-17.26,41.92-15.56-8.95-3.82-15.25-7.96-8.29-16.94Zm32.34,80.41l.22-1.15-1.6,.31c.14,.35,.19,.79,.44,1,.16,.13,.61-.1,.93-.16Z"/><path class="q" d="M367.65,337.44c-11.54,1.19-15,9.45-18.71,19.07-14.39,37.34-37.17,68.91-69.59,92.61-50.22,36.71-116.62,33.2-166.57-8.4-25.45-21.2-44.23-47.56-56.99-78.11-4.55-10.9-7.32-22.98-21.16-26.3,8.73-12.07,8.72-24.07-.25-36.02,3.14-.04,6.28-.08,9.42-.12,10.09,9.98,6.52,24.39,11.73,36.11,10.49,23.58,14.67,50.47,36.91,67.61,1.3,2.42,3.55,3,6.04,3.09-.14,4.17,.65,7.85,3.65,11.17,40.21,44.58,105.35,67.39,163.79,28.68,49.54-32.82,77.94-79.16,85.91-137.99,.58-4.3,.7-8.18,6.13-8.74,2.14,.2,4.28,.4,6.42,.6,.35,12.31-4.97,25.12,3.27,36.73Z"/><path class="p" d="M357.22,65.26c.35,1.76,.7,3.51,1.04,5.27-.19,3.13-.39,6.26-.58,9.39-1.9,0-3.8,0-5.7,0-2.39-3.19-5.83-2.43-9.07-2.41-7.11,.35-10.61,3.94-8.08,10.86,2,5.47,1.7,10.9,1.85,16.41-1.02,1-2.05,2.01-3.07,3.01-7.45,2.51-2.96,8.01-3.08,12.35h-12.05c-3.84,.33-8.77-1.77-11.06,2.51-2.83,5.28,3.22,6.28,5.61,9.06,3.26,3.79,6.64,7.53,9.44,11.65q14.22,20.87,31.11,4.33c.29-.29,.97-.18,1.47-.26,.06,1.99,.12,3.98,.17,5.97-2.38,14.51,4.95,10.07,12.01,6.16,.05,1.04,.1,2.07,.15,3.11,.84,4.16,1.67,8.33,2.51,12.49-5.89,3.51-8.54-9.07-14.94-3.01-1.95,.02-3.9,.04-5.86,.05-8.34-5.94-20.23-.66-27.84-8.6-7.61-7.94-17.51-10.86-27.63-13.47,2.7-8.92,8.39-17.15,6.31-27.18,.03-5.06,.05-10.11,.08-15.17,9,6.72,17.82,9.01,24.8-2.38,5.05-8.23,2.88-14.94-5.93-19.25-3.03-11.47-13.75-14.97-21.9-21.13-.02-1.1-.04-2.2-.06-3.29,6.13,1.08,12.27,2.16,18.4,3.24,.39,.27,.77,.53,1.16,.8l-1.27-.69c-3.65-5.82-7.56-11.34-15.05-12.59,4.24-5.1,8.48-10.2,12.72-15.3,.94,0,1.72,.36,2.34,1.07,3.24,13.69,6.7,26.68,25.76,24.02,5.17-.72,10.81,1.89,16.23,2.98Z"/><path class="j" d="M83.28,43.65c-5.99,.12-7.01,5.23-9.19,9.16-.89,8.98-14.18,13.47-8.94,24.68l-3.21-.2c-2.05-3.09-4.09-3.22-6.12,.03h.03c-1.6,.76-4.36,1.27-4.6,2.34-.74,3.34,2.35,3.27,4.57,3.74-1.05,6.08-2.09,12.16-3.14,18.23-.08,1-.11,2-.1,3-5.5,.51-8.66,3.24-8.64,9.03-2.14,2.11-4.28,4.22-6.41,6.34-5.72-3-9.83-3.18-8.95,5.18,.4,3.85,5.09,9.06-3.28,10.03-2.97-1.71-6.43-5.31-8.8-4.7-3.56,.93,.48,4.92-.25,7.58-1.27,7.01,3.14,11.19,7.47,15.59,3.38,3.43,7.15,7.44-1.53,9.05-7.74,.06-7.02-18.24-19.08-8.8-4.38-8.25-4.27-17.38,1.29-23.9,7.4-8.69,8.68-18.51,10.13-28.75,.35-2.32,.7-4.65,1.05-6.97,.08-3.35-.3-6.88,3.4-8.83,.13,7.54,.18,15.07,.43,22.6,.09,2.68,1.26,4.9,4.42,4.97,2.37,.05,3.66-1.51,4.08-3.6,2.47-12.52,10.24-22.75,14.9-34.32,.95-2.35,1.64-3.47-1.37-3.83-1.49-.18-3.01-.18-4.51-.27,3.06-27.72,22.83-34.67,46.19-37.15,.06,3.26,.13,6.51,.19,9.77Z"/><path class="o" d="M43.8,300.17c-3.14,.04-6.28,.08-9.43,.12-2.02-1.08-4.05-2.15-6.07-3.22-1.01-5.09-2.03-10.18-3.04-15.27,4.66-.53,11.13,1.88,11.87-5.71,.47-4.75,2.84-11.34-2.13-14.07-7.78-4.28-5.33,6.87-9.7,7.93-2.69,.65-5.79-.34-8.7-.6,.23-12.44-1.17-24.66-5.04-36.54,4.99,1.69,6.38,6.35,7.98,10.44,3.35,8.57,9.97,9.41,17.32,7.49,7.39-1.93,10.46-7.68,9.73-15.02-.41-4.11,2.83-12.38-6.02-9.95-10.42,2.86-18.53-1.43-27.2-5.09,.81-6.79-6.5-9.31-7.86-14.96,1.58-1.15,3.15-2.29,4.73-3.44,6.23,3.98,5.35,18.93,18.61,12.06,19.63,1.04,12.4-14.82,15.28-24.3,5,.11,10.01,.21,15.02,.31-.04,3.01-.07,6.03-.11,9.05-.05,2.02-.11,4.04-.16,6.05-1.76,13.19-11.17,25.71-3.45,39.72,0,2.88,0,5.76,.02,8.64-5.92,.06-8.83,2.58-8.99,8.97-.16,6.33-1.55,12.62-2.4,18.93-.08,6.15-.16,12.3-.24,18.44Z"/><path class="j" d="M355.22,153.41c-.06-1.99-.12-3.98-.17-5.97,5.7-4.97,.05-8.31-1.28-12.66-1.52-5-10.98-7.47-5-14.82,4.72,.77,4.94,7.6,10.76,7.8,1.15-8.57-5.18-11.02-10.76-14.03-3.51-11.82-8.19-23.46-5.85-36.22,3.24-.02,6.68-.78,9.07,2.41,.01,6.21,.02,12.42,.03,18.63,.3,2.3-.17,5.88,1.07,6.63,2.51,1.52,3.84-1.39,4.94-3.45,11.49-7.45,7.41-14.67-.34-21.83,.19-3.13,.39-6.25,.58-9.38,16.01,3.57,29.84,9.73,33.33,28.13-1.51,8.84-15.24,5.32-15.54,15.37-5.3,1.58-8.25-4.65-14.07-4.55,1.93,15.19,13.32,26.38,14.35,41.03-1.68,4.01-4.71,6.03-9.05,6.09-4.02-1.06-8.04-2.13-12.07-3.19Z"/><path class="g" d="M44.12,190.04c-2.89,9.49,4.34,25.34-15.29,24.31-.41-2.79-.82-5.58-1.23-8.37,.73-4.61-1.33-6.52-5.85-6.01-3.93,.32-8.53-2.68-11.53,2.32-1.57,1.15-3.15,2.29-4.73,3.44-7.66-13.03-4.45-25.24,2.82-37.13,4.14-3.09,14.2,7.84,13.87-5.85,8.68-1.62,4.91-5.62,1.53-9.05-4.33-4.4-8.74-8.58-7.47-15.59,10.16,4.92,12.63,18.27,23.99,21.87,3.54,5.66-9.33,14.05,3.03,18.24,.09,.92,.14,1.85,.15,2.77,.23,3.02,.47,6.04,.7,9.06Zm-14.05-4.53c-2.95-4.42-6.09-9.3-12.11-10.06-3.83-.48-7.68,1.82-6.74,6.07,1.35,6.1,6.29,8.82,12.53,8.64,2.9-.08,6.42,.36,6.32-4.64Z"/><path class="d" d="M83.28,43.65c-.06-3.26-.13-6.51-.19-9.77,5.9-12.66,15.37-20.29,29.69-21.11,6.54,.03,13.07,.06,19.6,.09l.06-.07c-6.96,8.98-.67,13.13,8.29,16.94-17.98-1.7-26.66,15.06-41.92,15.56-5.41,.18-10.77,3.42-15.52-1.65Zm9.39-5.75c7.35-.17,13.49-3.1,19.8-8.75-9.44-1.69-15.51,1.73-20.37,8.19l-1.03,1.59,1.59-1.02Z"/><path class="h" d="M367.28,156.6c4.34-.06,7.37-2.08,9.05-6.09h3.04c1.95,.23,5.06-.24,5.68,.79,9.25,15.49,11.83,4.55,15.14-3.67,4.85,8.4-3.56,17.16,.71,25.57-.02,3.71-.03,7.42-.05,11.14l.19-.21c-8.73,2.94-14.78,9.72-21.77,15.17-3.03-1-6.07-2-9.1-3,1.91-3.17,3.82-6.33,5.73-9.5,1.17-3.96,2.34-7.92,3.51-11.88l-.06,.06c1.06-1.06,2.12-2.12,3.17-3.18l-.05,.05c3.38-2.1,3.02-4.17-.06-6.21-4.25-4.87-9.98-2.22-15.04-2.98-.05-1.04-.1-2.07-.15-3.11,0-.99,.01-1.98,.06-2.97Z"/><path class="i" d="M156.72,22.29c-2.28-4.01-10.01-2.56-9.43-9.43C161.37-5.68,180.46,.64,198.56,2.8c4.4,.53,8.59,2.76,12.88,4.21,0,.96-.01,1.92-.01,2.88-4.26,.62-9.15-1.13-12.38,3.33-9.99,2.35-20.14,3.16-30.38,2.96-5.21-.36-7.85,4.31-11.95,6.11Z"/><path class="r" d="M13.35,220.68c8.68,3.65,16.79,7.95,27.2,5.09,8.85-2.43,5.61,5.84,6.02,9.95,.73,7.34-2.34,13.09-9.73,15.02-7.34,1.92-13.97,1.08-17.32-7.49-1.6-4.09-2.99-8.75-7.98-10.44-2.02-4.43-.7-8.37,1.8-12.13Z"/><path class="o" d="M390.64,245.11c-1.78,9.12-3.57,18.25-5.35,27.38-9.27-3-18.47,.52-27.71,.28l-.1-5.83c.62-4.18-1.37-6.23-5.41-6.61-.08-3.02-.15-6.05-.23-9.07,2.13-.08,4.25-.16,6.38-.24,4.9-.06,9.8-.12,14.7-.18,8.91,7.4,10.64-7.45,17.73-5.72Z"/><path class="j" d="M357.22,65.26c-5.42-1.08-11.06-3.7-16.23-2.98-19.07,2.66-22.52-10.33-25.76-24.02,17.41,3.69,35.45,6.39,42,26.99Z"/><path class="h" d="M367.65,337.44c-8.25-11.61-2.92-24.42-3.28-36.74,5.92-.89,9.46-4.85,12.41-9.59l5.84-.19c-1.54,16.62-2.71,33.35-14.97,46.52Z"/><path class="f" d="M36.9,71.03c1.5,.08,3.02,.09,4.51,.27,3.01,.36,2.32,1.48,1.37,3.83-4.66,11.58-12.42,21.8-14.9,34.32-.41,2.1-1.71,3.66-4.08,3.6-3.16-.07-4.33-2.28-4.42-4.97-.25-7.53-.3-15.07-.43-22.6,3.88-7.43,11.16-10.62,17.93-14.46Z"/><path class="h" d="M28.3,297.06c2.02,1.07,4.05,2.15,6.07,3.22,8.97,11.94,8.98,23.95,.25,36.02-9.87-11.34-13.13-24.66-11.79-39.36,1.82,.04,3.64,.08,5.46,.11Z"/><path class="h" d="M391.93,207.65c4.33,5.94,7.1,12.11,2.85,19.32-5.52,3.27-10.69,7.54-17.81,6.38-6.44-.1-12.75-1.75-14.6-8.36-1.59-5.68,4.69-8.28,7.95-11.82,2.67-2.91,6.02-5.18,9.07-7.74l6.13,.09c-.18,3.37-2.25,5.25-4.87,7.13-3.62,2.59-7.82,5.25-6.58,10.84,.52,2.34,2.62,3.23,4.67,2.75,4.97-1.18,10.1-2.8,11.97-8.13,1.14-3.24,.87-6.97,1.23-10.48Z"/><path class="j" d="M400.19,147.63c-3.31,8.22-5.89,19.16-15.14,3.67-.61-1.03-3.73-.56-5.68-.79,5.04-8.68,2.56-18.17,2.97-27.35,1.38-.08,2.75-.16,4.13-.25,7.74,6.48,12.97,14.35,13.71,24.72Z"/><path class="i" d="M266.36,13.2c7.78-12.32,16.31-5.69,24.76-.97-.55,9.53,2.26,15.23,13.25,11.67,0,0,.12,.35,.1,.36-1.56,5.29-.84,13.04-10.71,7.55-3.11-1.73-7.96-.31-12.02-.33-.4-8.71-3.29-15.66-12.71-18-.95,0-1.85,.2-2.7,.61l.04-.88Z"/><path class="h" d="M211.43,9.89c0-.96,0-1.92,.02-2.88,5.14-2.11,10.21-6.06,15.64-.62,1.19,9.77,9.5,8.64,15.68,9.33,6.03,.67,8.23-4.22,8.56-9.73,3.84,.62,6.62,2.31,6.78,6.67-2.91,1.3-3.8,3.76-3.83,6.7-5.43,4.16-11.2,7.28-18.4,5.88-3.52-5.62-7.1-10.65-15.23-7.67-6.89,2.53-8.46-2.33-9.21-7.69Z"/><path class="r" d="M281.74,31.47c4.06,.02,8.91-1.39,12.02,.33,9.87,5.48,9.15-2.26,10.71-7.55,6.93,1.65,6.05,8.35,8.42,12.95-4.24,5.1-8.48,10.2-12.72,15.3-3.83-2.78-6.96-6.97-12.56-6.11,.08-5.58-7.84-7.81-5.97-14.15l.1-.77Z"/><path class="q" d="M382.62,290.92c-1.95,.06-3.9,.12-5.85,.19-5.52-4.61-12.72-4.14-19.05-6.28-3.89-3.97-3.87-8-.15-12.06,9.24,.25,18.44-3.28,27.71-.28-.02,1.08-.04,2.17-.07,3.25-3.68,2.94-2.57,6.94-2.37,10.73l-.22,4.45Z"/><path class="o" d="M235.86,25.25c7.21,1.4,12.97-1.72,18.4-5.88,3.81-.07,5.92-1.99,6.3-5.8,1.93-.12,3.86-.25,5.79-.37,0,0-.04,.88-.04,.88,0,.7,0,1.4,.06,2.1-1.02,2.03-2.04,4.06-3.06,6.09-3.92,3.09-3.68,6.17,0,9.25-.53,4.82,2.13,11.23-6.11,12.18-3.71-2.21-4.31-7.81-9.35-8.55-4.08-2.16-8.16-4.31-12.24-6.47,.08-1.14,.16-2.29,.24-3.43Z"/><path class="m" d="M376.97,233.36c7.11,1.15,12.28-3.12,17.8-6.39,.59,6.5-2.21,12.22-4.14,18.14-7.08-1.73-8.81,13.13-17.72,5.73,1.36-5.82,2.71-11.65,4.06-17.48Z"/><path class="r" d="M16.6,269.35c2.91,.26,6.01,1.25,8.7,.6,4.37-1.06,1.92-12.21,9.7-7.93,4.97,2.74,2.6,9.32,2.13,14.07-.74,7.58-7.22,5.18-11.87,5.71-.06-3.85-1.92-5.96-5.85-6.07l-2.81-6.37Z"/><path class="p" d="M385.52,205.53c-2.04-.03-4.09-.06-6.13-.09-.04-2.04-.08-4.09-.11-6.13,6.99-5.44,13.04-12.23,21.77-15.17,.24,8.66-5.72,14.64-9.32,21.64-2.07-.08-4.14-.17-6.21-.25Z"/><path class="d" d="M385.52,205.53c2.07,.08,4.14,.16,6.21,.25,.51,.58,.58,1.2,.2,1.88-.36,3.51-.09,7.24-1.23,10.48-1.87,5.33-7,6.95-11.97,8.13-2.04,.48-4.15-.41-4.67-2.75-1.23-5.59,2.97-8.25,6.58-10.84,2.63-1.88,4.69-3.76,4.87-7.13Z"/><path class="p" d="M386.48,122.92c-1.38,.08-2.75,.16-4.13,.25-2.1-3.04-4.2-6.09-6.3-9.13,.3-10.05,14.03-6.53,15.54-15.37,6.35,9.78-2.42,16.38-5.11,24.25Z"/><path class="e" d="M251.32,6c-.33,5.51-2.53,10.4-8.56,9.73-6.18-.69-14.49,.43-15.68-9.33,8.05-1.61,16.07-5.56,24.23-.39Z"/><path class="p" d="M22.18,162.74c.33,13.69-9.73,2.76-13.87,5.85-1.74-4.88-3.47-9.76-5.21-14.64,12.07-9.45,11.34,8.86,19.08,8.79Z"/><path class="p" d="M19.41,275.72c3.93,.11,5.79,2.23,5.85,6.07,1.01,5.09,2.03,10.18,3.04,15.27-1.82-.04-3.64-.08-5.46-.11-2.4-6.87-6.39-13.49-3.43-21.23Z"/><path class="r" d="M304.37,23.9c-10.98,3.57-13.8-2.14-13.25-11.67,5.6,2.54,11.44,4.81,13.25,11.67Z"/><path class="i" d="M132.38,12.87c-6.53-.03-13.06-.06-19.6-.09,6.55-3.51,13.08-4.19,19.6,.09Z"/><path class="p" d="M400.85,184.35c.02-3.71,.03-7.43,.05-11.14,2.61,3.73,2.37,7.44-.05,11.14Z"/><path class="r" d="M260.57,13.57c-.38,3.8-2.49,5.73-6.3,5.8,.03-2.95,.92-5.4,3.84-6.7,.97-.09,1.79,.21,2.47,.91Z"/><path class="h" d="M382.85,286.47c-.2-3.8-1.31-7.79,2.37-10.73,.31,3.82,.35,7.58-2.37,10.73Z"/><path class="i" d="M15.57,94.32c-.35,2.32-.7,4.65-1.05,6.97-1.12-2.55-1.09-4.92,1.05-6.97Z"/><path class="m" d="M379.42,174.93c-1.17,3.96-2.34,7.92-3.5,11.88-6.29,.18-11.3,1.98-11.93,9.37-.96,.05-1.93,.1-2.89,.16-6.31,1.29-10.67,8.5-18.23,6.01-1.08-.99-2.15-1.98-3.22-2.97,.09-2.53-.53-4.75-2.76-6.26-4.56-18.07-29.8-34.82-47.12-31.31-8.55,1.73-17.17,.03-25.65,.31-13.82,.45-28.72-4.1-41.21,6.04-2.75,.03-5.5,.06-8.25,.1-7.8-4.74-16.34-1.71-24.53-2.35-3.05,.03-6.1,.06-9.14,.08-11.08-.54-22.09-.08-33.2-2.75-6.79-1.63-15.14-3.03-21.77,2.67-8.67-1.08-15.74,4.64-23.93,5.63-12.3-11.73-26.05-6.6-33.92,12.65-.19,.97-.26,1.94-.2,2.93l-.12-.17c-2.9,1.14-5.8,2.28-8.7,3.42-5.01-.1-10.02-.21-15.02-.32-.23-3.02-.46-6.04-.69-9.06,3.96,0,6.11-1.94,6.34-5.92,2.02-1.05,4.04-2.1,6.06-3.15,9.23-2.4,18.52-4.49,12.91-17.92-1.86-4.46,1.34-7.58,5.33-9.55,1.85,4.04,4.8,6.27,9.43,5.73,12.04,1.84,24.08,1.15,36.11-.12,13.33,.92,12.57-10.24,15.58-18.17,10.26,6.65,15.99,19.76,31.53,21.45-7.14-9.28-6.88-14.32,5.62-11.41,2.33,.54,5.74,2.78,6.84,.16,8.34-19.9,9.97-2.06,13.97,2.34,.25,5.92,3.25,9.02,9.26,9.04,1.98,0,3.97,0,5.95,.01,5.21-.5,11.01,2.1,15.33-2.97,2.48-.13,4.73-.71,6.07-3.09,4.57-4.3,13.55,16.17,15.52-2.76,.86-.17,1.72-.35,2.58-.53,2.11-.95,4.22-1.91,6.33-2.86,6.55,.73,6.03,22.76,18.35,6.08,.97-1,1.94-2,2.91-3l9.4,.06-.4,6.09c-1.22,.52-3.27,.79-3.5,1.59-.64,2.23,1.32,3.49,3.12,3.58,3.08,.14,3.51-2.5,3.96-4.85l5.59-.69c10.12,2.62,20.02,5.54,27.63,13.48,7.61,7.94,19.49,2.66,27.84,8.6-.86,1.76-1.31,3.95-2.65,5.19-3.38,3.12-4.78,6.51-2.14,10.51,1.31,1.98,3.54,1.1,5.36,.17,3.48-1.78,7.79-2.84,6.11-8.52-.69-2.34-.57-4.92-.82-7.4,6.4-6.06,9.05,6.52,14.95,3.01,3.18-.08,6.36-.16,9.53-.24Z"/><path class="p" d="M52.59,104.63c-.01-1,.02-2,.1-3,7.36-6.03,18.26,.9,25.14-6.89,2.18-2.47,6.81-4.37,4.4-8.35-2.68-4.42-4.65,1.36-7.01,1.47-6.98,.33-9.23-4.45-10.06-10.37-5.25-11.21,8.04-15.7,8.94-24.68,8.39,8.73,22.73,2.49,30.72,12.22-1.04,6.1-2.09,12.21-3.13,18.31-3.91,6.62-18.96,10.06-6.12,21.45-.06,.98-.1,1.97-.13,2.95-7.84,.64-8.26,10.56-15.29,12.23-2.07-3.07-4.14-6.15-6.21-9.22-1.23-2.23-3.25-2.78-5.6-2.65-4.3-5.46-10.44-2.57-15.75-3.47Z"/><path class="f" d="M177.78,95.67c-2.35-1.42-2.81-3.71-2.86-6.2,2.29-.42,5.92-.94,4.24-3.81-2.03-3.48-4.97,.38-7.52,.98-3.54-4.81,4.32-7.36,2.35-11.85,2.89-5.77,11.93-4.69,14.1-11.93-7.58-2.39-14.44-.03-21.32,.05-.65-4.06,3.85-4.29,5.15-6.9,6.25,.02,12.54,.27,18.19-3.16,5.04,2.06,10.09,4.11,15.13,6.17-.92,11.33,4.94,22.03,3.13,33.45-9.91,3.81-20.29,3.14-30.6,3.21Z"/><path class="f" d="M199.18,132.29c-7.36-9.57-4.53-20.15-3.02-30.6,4.11-1.04,8.21-2.09,12.31-3.13,2.17,.09,4.34,.19,6.51,.28,3.89,7.39,12.96,7.59,18.2,13.11-.72,4.1,1.05,7.58,2.75,11.08-1.06,.04-2.13,.08-3.19,.13-8.16,.15-5.64,13.64-15.14,12.12-5.4-5.56-12.26-2.15-18.42-2.99Z"/><path class="p" d="M171.92,56.01c-1.3,2.62-5.8,2.84-5.15,6.9l-.45-.2c-10.85,.65-14.99,7.74-16.56,17.28-10.46,4.94-3.29,14.43-5.56,21.49l-.05,.12-2.99,2.87-.23,.07c-4.78,.01-9.75,.41-6.83-7.16,1.8-4.66,2.63-9.71,4.62-14.27,6.36-14.56,20.79-27.58,7.69-45.59-1.1-1.51,2.01-2.81,4.03-3.09,7.65,6.7,16.66,12.06,21.47,21.58Z"/><path class="d" d="M80.15,119.97c7.02-1.66,7.45-11.58,15.29-12.22,.54,.53,1.08,1.06,1.62,1.59-1.89,6,.96,7.4,5.98,5.65,3.56-1.24,9.23-2.11,8.83-6.47-.54-5.85-6-2.66-9.5-2.76l-.82-1.06c3.13-4.65,3.4-9.91,3.18-15.26,2.01-1.01,4.01-2.01,6.02-3.02-.34,6.65-.04,12.8,7.41,16.1,4.81,2.13,4.92,6.96,4.94,11.51-2.05,1.01-4.1,2.01-6.15,3.02-6.86,.58-13.05,3.43-16.4,9.17-7.53,12.93-13.92,10.32-20.57-.38,.06-1.95,.11-3.91,.17-5.86Z"/><path class="e" d="M110.74,86.41c-2.01,1.01-4.01,2.01-6.02,3.02-.19-2.44-.64-4.75-3.04-6.08,1.04-6.1,2.08-12.21,3.13-18.31,5.23-7.73,12.26-13.44,20.57-17.41,1.95-.93,5.07-.5,7.21,.38,2.37,.97,1.86,4.06,.27,5.02-12.73,7.66-11.26,24.6-22.12,33.38Z"/><path class="h" d="M171.92,56.01c-4.82-9.52-13.82-14.88-21.47-21.58,.03-2.48,.56-4.71,2.97-6.02,8.83,11.54,13.8-5.24,21.38-2.91,1.04,3,2.08,5.99,3.12,8.99-.89,9.41,11.45,10.03,12.2,18.36-5.65,3.43-11.94,3.18-18.19,3.16Z"/><path class="p" d="M116.94,117.04c2.05-1.01,4.1-2.01,6.15-3.02,3.53-1.27,7.07-2.55,12.09-4.36,0,7.98,0,15.11,0,22.24-3.01,7.92-2.25,19.09-15.58,18.17,.14-3.9,.27-7.8,.4-11.71,3.95-6.14,13.38-13.41-3.16-15.31l.1-6.01Z"/><path class="f" d="M165.7,107.62c10.86,4.28,7.31,13.03,3.34,18.34-5.38,7.21-10.81,.93-14.32-3.93-4.36-6.04-15.99-6.37-13.79-17.49l.23-.07c1-.96,1.99-1.91,2.99-2.87l.05-.12c1.31,.24,2.62,.48,3.92,.71-1.82,4.9-.3,8.84,4.14,11.12,6.45,3.31,9.63-2.18,13.44-5.7Z"/><path class="j" d="M235.92,123.04c-1.7-3.5-3.47-6.98-2.75-11.07,6.32,3.12,13.63,7.99,10.43-5.85,.56-.53,1.13-1.06,1.71-1.57,4,1.88,6.49,6.53,11.64,6.29,.13,7.13,.26,14.26,.39,21.39l-3.24,.06-5.97-.12c-.13-4-2.25-5.97-6.2-6.07-2-1.02-4-2.03-6-3.05Z"/><path class="k" d="M166.77,62.91c6.88-.07,13.74-2.44,21.32-.05-2.16,7.24-11.21,6.16-14.1,11.93-3.7,2.04-7.4,4.1-11.11,6.15-8.21-7.84,4.21-11.8,3.43-18.23l.45,.2Z"/><path class="f" d="M166.32,62.71c.78,6.44-11.64,10.39-3.43,18.23-1.12,5.55-5.94,8.96-10.1,8.74-4.64-.25-1.31-6.5-3.01-9.69,1.57-9.54,5.7-16.63,16.55-17.29Z"/><path class="e" d="M174.79,25.5c-7.58-2.33-12.55,14.45-21.38,2.91,1.1-2.04,2.2-4.08,3.3-6.12,4.11-1.81,6.74-6.48,11.96-6.11,2.04,3.11,4.08,6.22,6.12,9.32Z"/><path class="k" d="M165.7,107.62c-3.81,3.52-6.99,9.01-13.44,5.7-4.44-2.28-5.96-6.23-4.14-11.12,6.21,.67,13.42-1.89,17.58,5.43Z"/><path class="d" d="M208.47,98.57c-4.1,1.04-8.21,2.09-12.31,3.13-6.15-1.94-15.14,4.78-18.38-6.02,10.3-.07,20.69,.61,30.6-3.2,.03,2.03,.06,4.07,.09,6.1Z"/><path class="p" d="M245.28,144.67c-1.97,18.92-10.95-1.54-15.52,2.76,3.14-12.36,10.41-1.47,15.52-2.76Z"/><path class="d" d="M199.18,132.29c6.16,.85,13.02-2.57,18.42,2.99-7.12,5.02-13.37,4.72-18.42-2.99Z"/><path class="p" d="M223.69,150.52c-4.32,5.07-10.13,2.46-15.33,2.97,3.51-9.26,9.21-7.21,15.33-2.97Z"/><path class="p" d="M248.13,132.16c1.99,.04,3.98,.08,5.97,.12,.04,1.1,.09,2.2,.13,3.31-.01,1.89-.03,3.79-.04,5.68-2.11,.96-4.22,1.91-6.33,2.86,1.01-3.97-5.06-8.1,.26-11.97Z"/><path class="p" d="M202.4,153.47c-6.01-.02-9.01-3.12-9.26-9.04,5.79,.24,8.82,3.32,9.26,9.04Z"/><path class="d" d="M235.92,123.04c2,1.02,4,2.03,6,3.05-.2,1.99-.39,4.69-2.73,4.59-4.36-.2-4.46-4.84-6.46-7.51,1.06-.04,2.12-.08,3.19-.12Z"/><path class="d" d="M171.64,86.64c2.56-.6,5.49-4.46,7.52-.98,1.68,2.87-1.96,3.39-4.24,3.81-1.09-.94-2.19-1.89-3.28-2.83Z"/><path class="d" d="M164.78,93.21c-.32,.07-.78,.29-.93,.16-.25-.21-.31-.66-.44-1l1.6-.31-.22,1.15Z"/><path class="g" d="M357.58,272.76c-3.72,4.07-3.73,8.09,.16,12.06,.08,5.09,.15,10.19,.23,15.28-5.43,.56-5.55,4.44-6.13,8.74-7.97,58.82-36.37,105.17-85.91,137.99-58.44,38.71-123.59,15.9-163.79-28.68-3-3.32-3.79-7.01-3.65-11.17,5.47-.41,8.79,2.06,12.65,6.25,16.78,18.23,35.29,34.27,60.67,39.5,11.81,4.39,24.25,7.93,36.52,5.54,8.24-1.61,18.81,1.01,24.54-8.56,6.1-1.03,12.2-2.06,18.3-3.09,3.97-.09,6-2.12,6.13-6.08,2.32-.85,4.86-1.35,6.94-2.61,39.81-24.12,62.6-60.99,74.24-104.55,2.9-10.84,7.03-24.07,1.28-36.33,1-5.09,1.99-10.17,2.99-15.26,6.53-10.7,1.53-22.45,3.06-33.6,.97-.03,1.95-.06,2.92-.1,1.05,1.06,2.09,2.11,3.14,3.17,.08,3.02,.15,6.05,.22,9.07-.19,3.84,1.75,5.92,5.41,6.61l.1,5.83Z"/><path class="j" d="M171.79,452.73c-25.38-5.22-43.89-21.27-60.67-39.5-3.86-4.19-7.17-6.66-12.65-6.25-2.49-.1-4.74-.67-6.04-3.09-.73-5.15,1.99-10.99-3.08-15.25-3.4-11.79-6.33-23.87-18.29-30.54-1.02-3.05-2.04-6.1-3.06-9.15,5.19-12.29-4.24-22.57-4.63-34.03-.27-8.02-8.72-15.53-1.52-23.96,7.97,31.09,16.83,61.79,35.2,88.81,7.28,10.7,16.91,23.43,28.91,19.82,12.29-3.7,23.28-1.71,34.84-2.29,3.71,2.07,7.41,4.14,11.12,6.21l-.13,3.45c-7.18-.19-10.54,1.86-7.32,9.93,3.12,7.81,10.67,10.42,15.9,15.68,3.08,3.1,9.32,4.18,8.92,9.45-.52,6.85-7.02,3.71-10.91,4.91-3.12,.96-5.22,2.94-6.59,5.81Z"/><path class="g" d="M89.36,388.63c5.07,4.27,2.35,10.11,3.08,15.25-22.24-17.14-26.42-44.03-36.91-67.61-5.22-11.72-1.64-26.13-11.73-36.11,.08-6.15,.16-12.29,.23-18.44,9.44-.53,8.01,6.17,8.86,12.29,2.62,18.93,6.94,37.48,15.12,54.93,1.02,3.05,2.04,6.1,3.06,9.15,3.39,11.8,6.33,23.88,18.29,30.54Z"/><path class="o" d="M357.96,300.11c-.07-5.09-.15-10.19-.23-15.28,6.33,2.14,13.52,1.67,19.05,6.28-2.94,4.74-6.48,8.7-12.4,9.6-2.14-.19-4.28-.39-6.42-.59Z"/><path class="h" d="M275.44,144.35c-.97,1-1.94,2-2.91,3-7.32-11.12-7.47-24.03-9.14-36.56,7.13-5.72,.66-20.96,15.1-21.55l.15,.23c7.1,11.16,14.19,22.33,21.29,33.49,2.08,10.03-3.61,18.26-6.31,27.18-1.87,.23-3.73,.46-5.6,.69-1.19-.11-2.39-.21-3.58-.32,.13-2.03,.27-4.06,.4-6.09,2.87-2.85,2.46-5.04-1.54-5.88-4.59-.97-7.39,.98-7.86,5.82Z"/><path class="r" d="M342.91,77.51c-2.34,12.77,2.34,24.4,5.85,36.23,0,2.08,0,4.15,0,6.23-5.97,7.35,3.48,9.82,5,14.82,1.33,4.35,6.98,7.69,1.28,12.66-.5,.08-1.17-.03-1.47,.26q-16.95,16.58-31.11-4.33c-2.81-4.12-6.18-7.86-9.44-11.65-2.39-2.78-8.44-3.78-5.61-9.06,2.29-4.28,7.22-2.18,11.06-2.52-1.29,11.01,8.35,14.95,14,21.41,2.04,2.33,5.31,3.68,8.02,1.53,3.16-2.51,2.31-6.17,1.03-9.59-2.14-5.72-10.48-6.3-11-13.34,.12-4.34-4.37-9.84,3.08-12.35,1.1,1.72,2.68,3.13,4.43,1.4,1.77-1.74,.36-3.31-1.36-4.42-.15-5.52,.15-10.94-1.85-16.41-2.53-6.92,.98-10.51,8.08-10.86Z"/><path class="g" d="M318.88,86.16c8.81,4.31,10.99,11.01,5.93,19.25-6.99,11.38-15.81,9.09-24.8,2.38-3.87-9.9-10.19-16.93-21.36-18.32l-.14-.22c.09-3.05,.17-6.1,.26-9.15,9.74-.75,17.81,3.59,25.16,9.06,6.58,4.9,11.04,3.36,14.96-2.99Z"/><path class="f" d="M318.88,86.16c-3.92,6.35-8.38,7.89-14.96,2.99-7.35-5.47-15.42-9.81-25.16-9.06-.06-1.94-.13-3.88-.19-5.82,3.68-7.97,10.38-9.95,18.42-9.24,8.15,6.17,18.86,9.67,21.9,21.13Z"/><path class="d" d="M330.52,120.14c.52,7.04,8.86,7.62,11,13.34,1.28,3.42,2.13,7.08-1.03,9.59-2.7,2.15-5.98,.8-8.02-1.53-5.65-6.46-15.29-10.4-14-21.41,4.02,0,8.04,0,12.05,0Z"/><path class="e" d="M287.6,46.39c5.6-.86,8.74,3.33,12.56,6.11,7.49,1.24,11.4,6.76,15.05,12.59l.11-.11c-6.13-1.08-12.27-2.16-18.4-3.24-6.58-4.35-17.7-3.18-18.19-14.94,2.96-.14,5.91-.27,8.87-.41Z"/><path class="g" d="M278.73,46.8c.5,11.76,11.61,10.59,18.19,14.94,.02,1.1,.04,2.19,.06,3.29-8.04-.71-14.73,1.27-18.41,9.24-3.96-.16-5.95-2.26-6.07-6.18,4.37-2.64,7.8-4.82,1.76-9.97-8.24-7.02-3.23-9.98,4.48-11.32Z"/><path class="f" d="M278.64,89.47c11.17,1.39,17.5,8.42,21.36,18.32-.02,5.06-.05,10.12-.08,15.17-7.1-11.16-14.19-22.33-21.29-33.49Z"/><path class="e" d="M352.02,98.55c-.01-6.21-.02-12.42-.03-18.63,1.9,0,3.81,0,5.7,0,7.75,7.15,11.83,14.37,.33,21.82-1.26-2.46-3.5-3.06-6-3.19Z"/><path class="l" d="M354.94,172.16c.25,2.47,.13,5.06,.82,7.4,1.68,5.68-2.64,6.74-6.11,8.52-1.82,.93-4.05,1.81-5.36-.17-2.64-4-1.24-7.38,2.14-10.51,1.34-1.24,1.79-3.43,2.65-5.19,1.95-.01,3.91-.03,5.86-.05Z"/><path class="g" d="M379.42,174.93c-3.18,.08-6.35,.16-9.53,.24-.84-4.16-1.68-8.32-2.51-12.49,5.06,.76,10.8-1.89,15.05,2.98,.02,2.07,.04,4.14,.06,6.21l.05-.05c-1.06,1.06-2.12,2.12-3.17,3.18l.06-.06Z"/><path class="r" d="M367.28,156.6c-.05,.99-.07,1.98-.06,2.97-7.06,3.91-14.39,8.35-12.01-6.16,4.03,1.06,8.05,2.13,12.07,3.19Z"/><path class="j" d="M336.68,104.78c1.72,1.1,3.12,2.68,1.36,4.42-1.75,1.72-3.33,.31-4.43-1.4,1.02-1,2.05-2.01,3.07-3.01Z"/><path class="e" d="M315.21,65.09l1.27,.69c-.39-.27-.78-.53-1.16-.8l-.11,.11Z"/><path class="o" d="M40.24,159.97c-11.37-3.59-13.83-16.95-23.99-21.87,.73-2.66-3.31-6.66,.25-7.58,2.37-.62,5.83,2.98,8.8,4.7,3.12,5.07,6.43,9.33,12.21,2.8,3.99,3.42,7.99,6.85,11.98,10.26,1.09,2.77,2.17,5.54,3.26,8.32-3.23,4.63-8.27,2.53-12.52,3.38Z"/><path class="r" d="M65.15,77.49c.83,5.92,3.08,10.7,10.06,10.37,2.36-.11,4.34-5.88,7.01-1.47,2.41,3.98-2.22,5.88-4.4,8.35-6.88,7.79-17.78,.86-25.14,6.89,1.05-6.08,2.09-12.16,3.14-18.23,0-2.03,.02-4.06,.03-6.08h-.03c2.04,0,4.08-.01,6.12-.02l3.21,.2Z"/><path class="d" d="M49.5,148.29c-3.99-3.42-7.99-6.85-11.98-10.27,0-6,.01-12.01,.02-18.02,2.14-2.11,4.28-4.22,6.41-6.33,2.93-.02,5.87-.05,8.8-.07-1.09,11.57-2.17,23.13-3.25,34.69Z"/><path class="r" d="M37.54,120c0,6.01-.01,12.01-.02,18.02-5.78,6.53-9.09,2.27-12.21-2.8,8.37-.97,3.68-6.19,3.28-10.03-.87-8.36,3.23-8.18,8.95-5.18Z"/><path class="o" d="M52.75,113.59c-2.94,.03-5.87,.05-8.8,.07-.02-5.79,3.14-8.53,8.64-9.04,5.3,.9,11.45-1.99,15.74,3.47-2.01,10.87-12.34-1.85-15.58,5.5Z"/><path class="d" d="M55.86,77.31c-.01,2.03-.02,4.05-.03,6.08-2.22-.47-5.3-.4-4.57-3.74,.24-1.07,2.99-1.58,4.6-2.34Z"/><path class="d" d="M61.94,77.29c-2.04,0-4.08,.02-6.12,.03,2.03-3.25,4.07-3.12,6.12-.03Z"/><path class="d" d="M160.8,397.29c-11.55,.59-22.55-1.41-34.84,2.29-12,3.62-21.63-9.11-28.91-19.82-18.37-27.02-27.23-57.72-35.2-88.81,0-3.05-.01-6.1-.02-9.15,0-2.05,0-4.1,0-6.15l-.02-6.05c.14-4.46,.16-8.84-5.98-9.24-.14-2.18-.27-4.37-.41-6.55,0-2.88,0-5.76-.01-8.64,2.16-.01,4.31-.02,6.46-.03,6.12,3.96,5.03,14.93,14.85,15.29-10.21,13.58-4.12,23.98,6.55,33.48-1.5,11.34,1.48,20.64,10.92,28.01,8.9,6.95,14.96,15.95,18.5,27.1,2.34,7.38,5.29,17.52,14.68,17.52,12.57,0,22.03,5.61,32.33,11.04,5.1,2.69,11.71,7.62,17.82,.55,6.16-7.13,2.24-12.32-2.34-18.6-9.89-13.56-7.85-21.78,5.77-28.91,15.67,15.54,20.08,16.06,37.76,3.39,3.52-2.53,7-3.51,11.08-3.37,1.54,4.09,5.62,8.19-.07,12.24-14.09,2.45-27.79,9.17-42.66,2.81-3.37-1.44-7.33-8.84-11.11-2.39-3.34,5.69,1.79,10.15,6.36,13.7,14.9,11.57,27.87,10.2,47.27-5.06,4.39,2.83,2.28,6.36,.19,8.83-6.7,7.94-6.66,17.13-5.91,26.59-2.59,1.33-5.03,1.18-7.27-.78-3.5-.94-6.56-.65-8.35,3.07-.76,.74-1.57,.81-2.44,.2-3.01-5.1-6.28-5.53-9.85-.55l-8.81-.27c-5.94-7.04-10.33-.79-15.16,1.75-3.18,3.11-11.84-3.19-11.18,6.52Z"/><path class="h" d="M61.84,281.8c0,3.05,.01,6.1,.02,9.15-7.21,8.43,1.24,15.95,1.52,23.96,.39,11.45,9.83,21.74,4.63,34.03-8.18-17.44-12.5-36-15.12-54.93-.85-6.12,.59-12.82-8.86-12.29,.86-6.31,2.25-12.6,2.41-18.93,.16-6.39,3.07-8.91,8.99-8.97,.13,2.18,.27,4.36,.4,6.55-.1,4.44-.17,8.85,5.98,9.24,0,2.02,.01,4.03,.02,6.05-1.57,.79-4.25,1.34-4.49,2.43-.72,3.26,2.29,3.27,4.5,3.73Z"/><path class="j" d="M61.88,245.15c-2.15,.01-4.3,.02-6.46,.03-7.73-14.01,1.68-26.53,3.44-39.72,3.04,0,6.07,0,9.11,.01-5.83,12.64-6.95,26.01-6.09,39.67Z"/><path class="l" d="M27.6,205.98c.41,2.79,.81,5.58,1.23,8.37-13.26,6.87-12.38-8.08-18.61-12.06,2.99-5,7.6-1.99,11.53-2.32,.55,3.37,2.48,5.39,5.85,6.01Z"/><path class="d" d="M67.97,205.47c-3.04,0-6.07,0-9.11-.01,.06-2.02,.11-4.04,.16-6.06,9.83,.72,9.24-5.93,8.81-12.46l.12,.17c12.71,6.11,3.94,12.24,.02,18.36Z"/><path class="j" d="M67.83,186.94c.43,6.53,1.02,13.18-8.81,12.46,.04-3.02,.07-6.03,.11-9.05,2.9-1.14,5.8-2.28,8.7-3.42Z"/><path class="f" d="M376.05,114.03c2.1,3.04,4.2,6.09,6.3,9.13-.41,9.18,2.07,18.67-2.97,27.35h-3.04c-1.03-14.65-12.42-25.84-14.35-41.03,5.82-.09,8.78,6.14,14.07,4.55Z"/><path class="d" d="M348.76,119.96c0-2.08,0-4.15,0-6.23,5.57,3.01,11.9,5.46,10.75,14.03-5.82-.2-6.04-7.03-10.76-7.8Z"/><path class="d" d="M352.02,98.55c2.5,.12,4.75,.72,6,3.19-1.1,2.06-2.43,4.97-4.94,3.45-1.24-.75-.76-4.33-1.07-6.63Z"/><path class="p" d="M40.24,159.97c4.25-.85,9.29,1.25,12.52-3.37,1.04,.07,2.09,.14,3.13,.22-.02,5.04-.04,10.07-.07,15.11-2.02,1.05-4.04,2.1-6.06,3.15-2.72-.09-5.07,.57-6.49,3.15-12.36-4.19,.51-12.58-3.03-18.24Z"/><path class="d" d="M30.07,185.51c.09,5-3.43,4.56-6.32,4.64-6.23,.18-11.17-2.54-12.53-8.64-.94-4.24,2.91-6.55,6.74-6.07,6.03,.76,9.16,5.64,12.11,10.06Z"/><path class="o" d="M27.6,205.98c-3.38-.62-5.31-2.64-5.85-6.01,4.53-.51,6.58,1.4,5.85,6.01Z"/><path class="o" d="M43.27,178.21c1.42-2.58,3.77-3.24,6.49-3.15-.23,3.99-2.38,5.92-6.34,5.92-.02-.93-.07-1.85-.15-2.77Z"/><path class="f" d="M92.11,37.33c4.86-6.45,10.93-9.87,20.37-8.18-6.31,5.65-12.45,8.58-19.8,8.75l-.57-.57Z"/><path class="f" d="M92.68,37.9l-1.59,1.02c.34-.53,.69-1.06,1.03-1.59l.56,.57Z"/><path class="r" d="M361.09,196.34c.96-.05,1.93-.1,2.9-.15,2.07,.04,4.13,.08,6.2,.12,3.03,1,6.07,2,9.1,3,.04,2.04,.07,4.09,.11,6.13-3.05,2.56-6.4,4.84-9.07,7.74-3.25,3.54-9.54,6.14-7.95,11.82,1.85,6.61,8.16,8.25,14.6,8.36-1.34,5.83-2.7,11.66-4.05,17.48-4.9,.06-9.8,.12-14.7,.18-.15-5.48,.22-11.04-.58-16.43-.93-6.29-6.12-14.47-.94-18.37,8.37-6.3,4.17-13.08,4.39-19.88Z"/><path class="p" d="M370.18,196.3c-2.06-.04-4.13-.08-6.2-.12,.63-7.39,5.64-9.19,11.93-9.38-1.91,3.16-3.83,6.33-5.74,9.49Z"/><path class="p" d="M382.48,171.87c-.02-2.07-.04-4.14-.06-6.21,3.08,2.04,3.44,4.11,.06,6.21Z"/><path class="m" d="M379.35,174.99c1.06-1.06,2.12-2.12,3.17-3.18-1.06,1.06-2.12,2.12-3.17,3.18Z"/><path class="r" d="M235.86,25.25c-.08,1.14-.16,2.29-.24,3.43-3.04-.04-6.09-.07-9.13-.11-7.34-.68-14.09,.97-20.25,5.04-1.45-6.17,.91-13.84-6.91-17.49-.05-.97-.14-1.94-.28-2.91,3.23-4.46,8.12-2.71,12.38-3.33,.75,5.36,2.32,10.22,9.21,7.69,8.13-2.98,11.7,2.05,15.23,7.67Z"/><path class="f" d="M199.05,13.22c.14,.96,.23,1.93,.28,2.91-3.5,10.36-9.33,18.01-21.41,18.37-1.04-3-2.08-6-3.12-8.99-2.04-3.11-4.08-6.21-6.12-9.32,10.24,.2,20.39-.61,30.38-2.96Z"/><path class="p" d="M361.09,196.34c-.21,6.8,3.99,13.58-4.39,19.88-5.18,3.9,0,12.08,.94,18.37,.8,5.39,.43,10.95,.58,16.43-2.12,.08-4.25,.16-6.38,.24-1.05-1.06-2.1-2.11-3.14-3.17-1.29-11.28,4.03-23.73-5.93-33.47l-.33-6.04c.14-2.08,.28-4.15,.41-6.23,7.56,2.49,11.92-4.72,18.23-6.01Z"/><path class="p" d="M357.47,266.93c-3.66-.68-5.6-2.77-5.41-6.61,4.03,.38,6.03,2.42,5.41,6.61Z"/><path class="f" d="M263.31,22.27c1.02-2.03,2.04-4.06,3.07-6.09,.88-.9,1.76-1.8,2.64-2.7,9.42,2.34,12.31,9.29,12.71,18,0,0-.1,.77-.1,.76-1.94-.07-3.88-.13-5.83-.2-5.87-1.07-9.74-4.71-12.49-9.77Z"/><path class="r" d="M269.02,13.47c-.88,.9-1.76,1.8-2.64,2.7-.05-.7-.07-1.4-.06-2.1,.85-.4,1.75-.61,2.7-.61Z"/><path class="p" d="M275.81,32.04c1.94,.06,3.88,.13,5.83,.2-1.87,6.36,6.04,8.58,5.97,14.16-2.96,.13-5.92,.27-8.87,.41-7.7,1.34-12.72,4.29-4.48,11.32,6.04,5.15,2.62,7.33-1.76,9.97-2.12,.1-4.24,.2-6.36,.3-2.14-.22-4.28-.44-6.42-.66-1.75-1.82-3.5-3.63-5.25-5.45-3.79-6.89,.48-12.59,2.75-18.58,8.24-.95,5.58-7.36,6.11-12.18,4.2-.66,7.83,12.17,12.48,.52Z"/><path class="j" d="M259.72,67.73c2.14,.22,4.28,.44,6.42,.66,1.46,9.49-3.08,16.34-9.08,23.13-3.87,4.38-11.32,5.62-11.74,13.03-.58,.52-1.15,1.04-1.7,1.57-6.56-6.19-16.64-2.19-23.32-8.06,.08-7.41,1.9-15.06-1.37-22.02h-4.17v22.4l.22,.42c-2.17-.09-4.34-.19-6.51-.28-.03-2.03-.06-4.07-.09-6.1,1.81-11.42-4.05-22.11-3.13-33.45,3.1-2.06,6.2-4.13,9.29-6.19,6.82-1.01,13.64-2.92,20.45-2.84,10.86,.13,14.21-5.02,12.88-14.85,5.05,.74,5.65,6.35,9.35,8.55-2.27,5.99-6.54,11.69-2.75,18.58-2.02,.02-4.05-.14-6.04,.08-5.54,.61-9.98,3.49-10.57,9.02-.49,4.6,2.13,9.19,6.88,10.64,6.26,1.9,8.76-3.46,11.51-7.59,1.39-2.08,2.33-4.46,3.47-6.71Z"/><path class="f" d="M247.86,35.15c1.33,9.83-2.01,14.98-12.88,14.85-6.8-.08-13.63,1.82-20.45,2.84-3.51-5.45-13.47,3.72-14.88-6.6-.59-4.31-.17-7.85,5.05-8.71,11.44,7.18,14.94-4.97,21.79-8.96,3.05,.04,6.09,.07,9.14,.11,4.08,2.16,8.16,4.31,12.23,6.47Z"/><path class="r" d="M275.81,32.04c-4.65,11.65-8.29-1.18-12.48-.52-3.69-3.08-3.93-6.16,0-9.25,2.76,5.06,6.62,8.7,12.49,9.77Z"/><path class="e" d="M342.44,208.58c.11,2.01,.22,4.03,.33,6.04-4.18,.43-6.61,2.88-5.96,6.93,1.79,11.25-3.81,16.4-13.96,18.82-1.91,.46-3.21,3.49-4.79,5.34-1.24-.91-2.49-1.82-3.74-2.73-5.6-8.48-14.67-9.16-23.47-10.46-1.02-1.63-2-4.63-3.08-4.67-14.18-.48-27.25-6.56-41.49-7.44-19.6-1.21-38.52-7.03-57.29-12.77-2.71-.83-6.4-1.78-6.5-5.41-.12-4.64,3.92-4.96,7.36-5.96,18.37-5.38,37.14-2.31,55.74-2.8,4.59-.12,7.33,2.9,9.06,6.89-1.21,8.97,5.1,8.44,10.72,8.2,14.99-.66,29.37,2.01,42.19,9.71,6.55,3.93,9.04,.36,12.29-3.65,7.2-.12,9.28-3.1,5.45-9.57-9.25-15.63-22.72-23.84-41.07-24.02-51.71-.52-103.29,4.76-155.05,3.45-12.37-.31-24.89,3.47-36.66,8.6-7.1,3.09-10.4,7.59-9.23,15.25-5.26,7.43-3.82,11.02,5.64,9.33,4.26-.76,8.36-2.35,12.54-3.56,1.07,8.32,2.13,16.64,3.2,24.96-.51,.9-1.28,1.42-2.3,1.57-.93-.6-1.86-1.19-2.79-1.79l-1.05,3.85c-.81,1.02-1.62,2.04-2.42,3.05-10.21-.05-13.6,8.89-19.35,14.71-9.82-.36-8.73-11.33-14.85-15.29-.85-13.67,.26-27.03,6.09-39.67,3.92-6.12,12.69-12.25-.02-18.36-.06-.99,0-1.96,.2-2.93,3-.03,6-.05,9.01-.08,6.09-1.03,12.18-2.07,18.28-3.1,6.78-1.45,13.84-1.99,20.44-3.45,13.48-2.98,27.72,.28,40.65-5.7,7.12,0,14.23,0,21.35,0,6.12,5.05,12.25,1.07,18.37,0,6.14-1.13,13.29,2.87,18.4-3.6,2.75-.03,5.5-.06,8.26-.09,10.44,.21,20.88,.41,31.31,.61,4.08,4.37,8.15,4.36,12.23,0l30.49,.15c3.13,9.07,11.26,8.01,18.36,9.06,7.19,5.05,14.39,10.09,21.58,15.14,2.24,1.5,2.86,3.72,2.77,6.26-2.57,1.44-5.73,2.9-4.72,6.42,1.06,3.68,4.8,2.36,7.53,2.77Z"/><path class="g" d="M116.94,117.04c-.03,2-.07,4-.1,6.01-1.92,3.95-9.22,4.07-7.94,9.94,1.25,5.77,6.6,5.18,11.11,5.38-.13,3.9-.27,7.81-.4,11.71-12.03,1.27-24.07,1.95-36.11,.12-.64-5.49-3.72-8.48-9.22-8.99,1.12-5.41-3.74-13.04,5.7-15.36,6.65,10.71,13.04,13.31,20.57,.38,3.35-5.74,9.54-8.59,16.4-9.17Z"/><path class="h" d="M336.86,193.12c-7.19-5.05-14.39-10.09-21.58-15.14-4.14-7.03-10.7-9.15-18.36-9.06-10.16-.05-20.32-.1-30.49-.15-4.08-4.17-8.15-4.2-12.23,0-10.44-.2-20.87-.4-31.31-.61,12.48-10.15,27.38-5.6,41.2-6.05,8.48-.28,17.1,1.43,25.65-.31,17.32-3.51,42.56,13.24,47.12,31.31Z"/><path class="o" d="M79.97,125.83c-9.44,2.32-4.59,9.95-5.71,15.36-.07,1.09-.14,2.17-.2,3.25-3.99,1.97-7.2,5.09-5.33,9.55,5.61,13.43-3.68,15.52-12.91,17.92,.02-5.04,.04-10.07,.06-15.11,2.06-3.1,4.12-6.2,6.18-9.29,3.19-2.35,8.18-4.12,2.99-9.2l.11-12.1c3.91-.28,5.85-2.37,5.83-6.29,3.46-2.27,2.92-5.81,2.94-9.18,2.07,3.07,4.14,6.15,6.21,9.22-.06,1.95-.12,3.91-.17,5.86Z"/><path class="d" d="M156.52,171.85c-12.92,5.98-27.17,2.72-40.65,5.7-6.6,1.46-13.66,2-20.44,3.45,.02-3.03,.04-6.06,.06-9.1,2.19-.12,4.38-.25,6.58-.37,8.19-.99,15.26-6.71,23.93-5.63,.4,4.22,2.83,3.61,6.21,3.53,8.14-.19,16.74-3.39,24.31,2.42Z"/><path class="o" d="M263.39,110.79c1.67,12.53,1.82,25.44,9.14,36.56-12.31,16.68-11.8-5.35-18.34-6.08,.01-1.89,.03-3.79,.04-5.69,1.04-1.12,2.07-2.24,3.11-3.36-.13-7.13-.26-14.26-.38-21.39,2.15-.01,4.29-.03,6.44-.04Z"/><path class="h" d="M156.52,171.85c-7.57-5.81-16.17-2.6-24.31-2.42-3.38,.08-5.81,.69-6.21-3.53,6.63-5.69,14.98-4.3,21.77-2.66,11.1,2.67,22.12,2.21,33.2,2.75-1.03,1.95-2.06,3.9-3.1,5.86h-21.35Z"/><path class="h" d="M102.07,171.53c-2.19,.12-4.38,.25-6.58,.37-8.37,.68-16.59,1.57-18.34,12.2-3,.03-6.01,.05-9.01,.08,7.87-19.25,21.62-24.38,33.92-12.65Z"/><path class="h" d="M214.64,168.26c-5.1,6.47-12.25,2.47-18.4,3.6-2.04-1.98-4.09-3.96-6.13-5.95,8.19,.64,16.73-2.39,24.53,2.35Z"/><path class="d" d="M190.11,165.91c2.04,1.98,4.09,3.96,6.13,5.95-6.12,1.07-12.25,5.04-18.37,0,1.03-1.95,2.06-3.91,3.09-5.86,3.05-.03,6.1-.05,9.14-.08Z"/><path class="d" d="M342.44,208.58c-2.73-.42-6.47,.91-7.53-2.77-1.01-3.52,2.15-4.98,4.72-6.42,1.07,.99,2.15,1.98,3.22,2.97-.14,2.07-.27,4.15-.41,6.23Z"/><path class="o" d="M275.44,144.35c.47-4.84,3.27-6.78,7.86-5.82,4,.84,4.41,3.04,1.54,5.88-3.13-.02-6.26-.04-9.4-.06Z"/><path class="p" d="M74.06,144.44c.07-1.08,.13-2.17,.2-3.25,5.5,.51,8.58,3.5,9.22,8.99-4.63,.53-7.57-1.7-9.42-5.74Z"/><path class="p" d="M284.44,150.51c1.19,.11,2.38,.21,3.58,.32-.45,2.35-.88,4.99-3.96,4.85-1.8-.08-3.76-1.34-3.12-3.58,.23-.8,2.28-1.08,3.5-1.59Z"/><path class="g" d="M65.17,126.21c-.04,4.03-.08,8.07-.11,12.1-3.69,2.19-3.06,5.79-2.99,9.2-2.06,3.1-4.12,6.19-6.18,9.29-1.04-.07-2.09-.14-3.13-.21-1.09-2.78-2.17-5.55-3.26-8.32,1.08-11.55,2.17-23.12,3.25-34.68,3.25-7.35,13.58,5.37,15.58-5.5,2.35-.13,4.38,.42,5.6,2.65-.03,3.36,.51,6.91-2.94,9.18-3.97,.22-6.03,2.21-5.83,6.29Z"/><path class="g" d="M101.68,83.34c2.4,1.33,2.85,3.64,3.04,6.08,.22,5.35-.05,10.6-3.18,15.26-1.99,.04-3.99,.07-5.98,.1-12.84-11.39,2.21-14.83,6.12-21.45Z"/><path class="d" d="M95.56,104.79c1.99-.03,3.99-.07,5.98-.1,0,0,.82,1.06,.81,1.06-1.77,1.19-3.54,2.39-5.3,3.58-.54-.53-1.08-1.06-1.62-1.59,.02-.99,.06-1.97,.12-2.95Z"/><path class="d" d="M204.7,37.53c-5.22,.86-5.64,4.4-5.05,8.71,1.41,10.31,11.37,1.15,14.88,6.6-3.1,2.06-6.19,4.13-9.29,6.19-5.04-2.06-10.09-4.11-15.13-6.17-.74-8.33-13.09-8.94-12.2-18.36,12.08-.36,17.91-8,21.41-18.37,7.83,3.65,5.46,11.32,6.91,17.48-.51,1.3-1.03,2.61-1.54,3.92Z"/><path class="k" d="M220.29,98.06c6.68,5.87,16.76,1.86,23.32,8.06,3.19,13.85-4.12,8.98-10.44,5.86-5.24-5.53-14.31-5.74-18.2-13.12l-.22-.42c1.85-.12,3.69-.25,5.54-.38Z"/><path class="g" d="M144.15,101.6c-1,.96-1.99,1.91-2.99,2.87,1-.96,1.99-1.91,2.99-2.87Z"/><path class="k" d="M97.05,109.33c1.77-1.2,3.53-2.39,5.3-3.58,3.51,.1,8.96-3.08,9.51,2.76,.41,4.36-5.27,5.23-8.83,6.47-5.03,1.75-7.87,.35-5.98-5.65Z"/><path class="h" d="M120,138.36c-4.5-.2-9.85,.4-11.11-5.38-1.27-5.86,6.03-5.98,7.94-9.94,16.54,1.91,7.11,9.18,3.16,15.31Z"/><path class="q" d="M263.39,110.79c-2.15,.01-4.29,.03-6.44,.04-5.15,.24-7.65-4.41-11.64-6.29,.42-7.41,7.87-8.65,11.74-13.03,6.01-6.8,10.54-13.64,9.08-23.13,2.12-.1,4.24-.2,6.36-.3,.12,3.93,2.11,6.02,6.07,6.18,.06,1.94,.13,3.89,.19,5.83-.08,3.05-.17,6.1-.26,9.15-14.44,.59-7.98,15.83-15.11,21.55Z"/><path class="g" d="M257.34,132.23c-1.04,1.12-2.07,2.24-3.11,3.36-.04-1.1-.08-2.2-.13-3.3,1.08-.02,2.16-.04,3.24-.06Z"/><path class="d" d="M342.72,281.79c-1,5.09-1.99,10.17-2.99,15.26-5.35,10.96-5.18,23.44-9.3,34.65-11.39,30.97-22.78,62.1-53.29,80.5-21.42,12.92-22.18,12.79-33.95-7.35-.24-.41-.79-.63-1.19-.94,0-1.06,0-2.12,.01-3.18,2.28-2.02,4.56-4.03,6.84-6.05,27.24-12.11,54.15-26.06,65.65-55.16,5.65-14.3,18.03-29.07,9.33-46.91,3.38-3.62,6.75-7.24,10.13-10.86,2.92,.01,5.84,.03,8.76,.04Z"/><path class="j" d="M242,403.9c.4,.31,.95,.53,1.19,.94,11.77,20.14,12.53,20.27,33.95,7.35,30.52-18.4,41.9-49.52,53.29-80.5,4.12-11.21,3.95-23.69,9.3-34.65,5.75,12.26,1.62,25.48-1.28,36.33-11.63,43.56-34.43,80.43-74.24,104.55-2.08,1.26-4.62,1.76-6.94,2.61-3.96,.09-6,2.12-6.13,6.08-6.1,1.03-12.2,2.06-18.3,3.09-10.76-3.3-17.77-8.74-12.2-21.37,4.38-.06,7.43-2.1,9.15-6.13,8.57-2.16,7.26-6.81,3.07-12.18-.3-1.35-.6-2.69-.9-4.04l.28,.31c2.97,.53,5.48,.21,6.31-3.32l-.31,.14c1.25,.26,2.5,.52,3.75,.79Z"/><path class="h" d="M220.65,428.34c-5.57,12.62,1.43,18.07,12.2,21.37-5.73,9.57-16.31,6.96-24.54,8.56-12.27,2.39-24.7-1.15-36.52-5.54,1.37-2.87,3.47-4.85,6.59-5.81,3.89-1.2,10.39,1.94,10.91-4.91,.4-5.27-5.84-6.35-8.92-9.45-5.23-5.26-12.78-7.87-15.9-15.68-3.22-8.08,.14-10.12,7.32-9.93l.03,.11c-.81,6.2,2.37,10.48,6.75,14.24,12.62,10.83,26.75,12.53,42.09,7.04Z"/><path class="d" d="M318.04,245.71c1.58-1.85,2.88-4.88,4.79-5.34,10.16-2.42,15.76-7.57,13.96-18.82-.65-4.05,1.78-6.5,5.96-6.93,9.96,9.74,4.65,22.19,5.93,33.47-.98,.03-1.95,.07-2.92,.1-7.42,.92-6.45,6.75-5.94,11.37,1.37,12.44-5.76,3.41-9.11,3.84-.3-.73-.44-1.49-.4-2.28,.34-4.18-1.48-6.57-5.75-6.91-2.18-2.83-4.35-5.67-6.53-8.5Z"/><path class="j" d="M330.72,263.4c3.35-.44,10.48,8.6,9.11-3.84-.51-4.63-1.47-10.45,5.94-11.37-1.53,11.15,3.47,22.9-3.06,33.6-2.92-.01-5.84-.03-8.76-.04,.51-6.4-.65-12.5-3.24-18.35Z"/><path class="h" d="M251.15,446.61c.13-3.95,2.16-5.99,6.13-6.08-.12,3.96-2.16,5.99-6.13,6.08Z"/><path class="n" d="M248.85,394.68c-2.28,2.02-4.56,4.03-6.84,6.05-1.25,.8-2.51,1.59-3.76,2.39,0,0,.31-.14,.31-.13-2.6,.16-5.01,.68-6.31,3.32,0,0-.28-.31-.28-.31-17.89,5.78-35.84,4.71-53.8,.39h.27c-2.17-.96-4.34-1.93-6.52-2.89-3.71-2.07-7.41-4.14-11.12-6.21-.66-9.7,8-3.41,11.18-6.52,5.27,1.28,10.36,1.01,15.16-1.76,2.94,.09,5.87,.18,8.81,.27,3.13,3,6.43,2.74,9.85,.55,.87,.61,1.68,.54,2.44-.2,3.39,.64,6.41,.25,8.35-3.07,2.24,1.96,4.67,2.11,7.26,.77,0,0,.48,.08,.48,.08,1.99,3.73,4.95,4.34,8.62,2.69,4.85,3.07,11.68-.74,15.89,4.57Z"/><path class="h" d="M89.36,388.63c-11.97-6.67-14.9-18.74-18.29-30.54,11.96,6.67,14.89,18.75,18.29,30.54Z"/><path class="i" d="M171.92,403.49c2.17,.97,4.34,1.93,6.51,2.9-2.21,.22-4.42,.44-6.62,.66l-.03-.11c.04-1.15,.09-2.3,.13-3.45Z"/><path class="f" d="M104.64,239.05c-1.07-8.32-2.13-16.64-3.2-24.96,9.89-4.61,20.44-5.22,31.12-5.55,4.49-.14,12,2.25,11.6-5.49-.33-6.47-7.4-5.93-12.28-5.77-16.88,.55-33.33,3.37-48.63,11.03-1.17-7.66,2.14-12.16,9.23-15.25,11.77-5.13,24.29-8.91,36.66-8.6,51.77,1.31,103.34-3.97,155.05-3.45,18.35,.18,31.83,8.39,41.07,24.02,3.83,6.47,1.75,9.45-5.45,9.57-4.06-8.4-13.99-5.03-19.81-9.88-.51-4.27-3.18-5.5-7.07-5-12.77,.03-25.59-2.74-38.31,.63-1.73-4-4.47-7.01-9.06-6.89-18.6,.49-37.37-2.58-55.74,2.8-3.44,1.01-7.48,1.33-7.36,5.96,.1,3.63,3.79,4.58,6.5,5.41,18.77,5.74,37.69,11.56,57.29,12.77,14.24,.88,27.31,6.96,41.49,7.44,1.08,.04,2.05,3.04,3.08,4.67-5.78,3.2-15.39-4.6-18.44,6.43-5.22,4.25-13,5.46-15.44,13.01-13.68,3.23-16.72,15.89-19.01,26.07-2.32,10.32,7.61,16.49,16.65,20.56,5.89,2.65,12.03,4.74,18.05,7.08-13.06,10.44-24.26,24.07-42.87,24.98-4.08-.14-7.55,.84-11.08,3.37-17.68,12.67-22.09,12.15-37.76-3.39-1.35-8.42-6.4-4.95-11.28-3.89-10.07,2.17-15.26-2.86-16.08-12.63-.42-4.99-.11-10.04-.13-15.07,18.99-15.28,16.08-40.37-5.88-50.67-12.36-12.09-27.35-12.09-42.93-9.3Zm106.42,90.22c-.54-4.67-3.28-7.15-7.87-7.33-4.3-.16-8.76,.99-8.43,6.1,.33,4.96,4.34,7.81,9.39,7.77,3.92-.04,6.37-2.45,6.9-6.53Z"/><path class="e" d="M229.78,330.64c18.61-.91,29.81-14.54,42.87-24.98,18.87,2.73,35.05-5.05,51.18-13.06,8.7,17.83-3.68,32.61-9.33,46.91-11.5,29.1-38.41,43.05-65.65,55.16-4.21-5.3-11.04-1.5-15.89-4.56-1.69-4.68-4.82-4.76-8.62-2.69,0,0-.49-.08-.48-.08-.75-9.45-.78-18.64,5.91-26.58,2.08-2.47,4.2-6-.19-8.83,.05-3.02,.09-6.04,.14-9.06,5.69-4.05,1.61-8.15,.07-12.24Z"/><path class="e" d="M153.46,299.02c.02,5.03-.29,10.08,.13,15.07,.82,9.77,6.01,14.8,16.08,12.63,4.89-1.05,9.94-4.53,11.28,3.89-13.62,7.13-15.66,15.35-5.77,28.91,4.58,6.28,8.5,11.48,2.34,18.6-6.11,7.07-12.72,2.14-17.82-.55-10.3-5.43-19.77-11.04-32.33-11.04-9.39,0-12.33-10.14-14.68-17.52-3.54-11.15-9.6-20.15-18.5-27.1-9.45-7.37-12.42-16.67-10.92-28.01,22.59,12.76,45.86,16.11,70.18,5.11Z"/><path class="k" d="M153.46,299.02c-24.32,11.01-47.59,7.66-70.18-5.11-10.66-9.5-16.75-19.9-6.55-33.48,5.75-5.82,9.14-14.75,19.35-14.71-.17,2.43,.2,5.07-.6,7.29-7.28,20.12-4.28,29.18,13.93,41.15,9.97,6.75,19.86,5.1,29.27-.91,11.97-7.65,15.73-20.37,9.48-30.34-.2-4.85-.4-9.71-.59-14.56,21.96,10.3,24.87,35.39,5.88,50.67Z"/><path class="o" d="M229.71,342.88c-.04,3.02-.09,6.04-.14,9.06-19.4,15.26-32.38,16.63-47.28,5.06-4.57-3.55-9.69-8.01-6.36-13.7,3.78-6.45,7.74,.95,11.11,2.39,14.88,6.36,28.57-.36,42.66-2.81Z"/><path class="j" d="M187.14,389.01c-4.8,2.76-9.89,3.04-15.16,1.76,4.83-2.55,9.23-8.79,15.16-1.76Z"/><path class="j" d="M205.8,389.84c-3.42,2.19-6.72,2.45-9.85-.55,3.57-4.98,6.84-4.54,9.85,.55Z"/><path class="j" d="M61.81,269.6c-6.15-.39-6.08-4.8-5.98-9.24,6.14,.4,6.12,4.78,5.98,9.24Z"/><path class="j" d="M61.84,281.8c-2.21-.46-5.22-.47-4.5-3.73,.24-1.09,2.92-1.63,4.49-2.43,0,2.05,0,4.1,0,6.15Z"/><path class="j" d="M216.59,386.57c-1.94,3.32-4.96,3.7-8.35,3.07,1.79-3.71,4.85-4,8.35-3.07Z"/><path class="k" d="M204.7,37.53c.51-1.31,1.02-2.62,1.54-3.92,6.16-4.06,12.91-5.72,20.25-5.04-6.85,3.99-10.35,16.14-21.79,8.96Z"/><path class="k" d="M259.72,67.73c-1.14,2.25-2.08,4.63-3.47,6.71-2.75,4.13-5.25,9.49-11.51,7.59-4.76-1.45-7.38-6.04-6.88-10.64,.59-5.53,5.03-8.41,10.57-9.02,1.99-.22,4.03-.07,6.04-.08,1.75,1.82,3.51,3.63,5.26,5.45Z"/><path class="p" d="M220.29,98.06c-1.85,.13-3.7,.25-5.54,.38,0-7.47,0-14.94,0-22.41h4.17c3.26,6.97,1.45,14.62,1.37,22.03Z"/><path class="n" d="M147.57,248.35c.2,4.85,.4,9.71,.6,14.56-5.37,1.1-6.38,5.3-7.45,9.83-2.47,10.48-11.22,15.69-19.92,13.75-8.94-1.99-8.37,4.16-11.39,7.66-18.21-11.97-21.21-21.03-13.93-41.15,.8-2.21,.42-4.85,.6-7.29,.81-1.01,1.62-2.03,2.43-3.05,2.02,.7,3.34,.09,3.83-2.06,1.02-.15,1.79-.67,2.3-1.57,15.59-2.78,30.57-2.79,42.93,9.3Zm-32.77,11.95c2.6-1.01,5.45-2.65,5.63-6.83,.16-3.57-1.98-5.78-5.21-6.06-3.79-.32-6.99,1.44-7.42,5.65-.42,4.11,1.93,6.43,6.99,7.24Z"/><path class="k" d="M323.83,292.6c-16.13,8.01-32.31,15.79-51.18,13.06-6.03-2.34-12.16-4.44-18.05-7.09-9.04-4.06-18.96-10.24-16.65-20.56,2.29-10.18,5.32-22.84,19-26.07-3.06,16.71-5,33.04,14.25,42.22,11.3,7.51,22.2,5.07,31.63-2.84,8.74-7.34,14.13-16.65,7.11-28.46,1.37-9.11-5.4-14.44-9.73-20.91,4.7,.34,9.4,.68,14.09,1.03,1.25,.91,2.49,1.82,3.74,2.73,2.17,2.83,4.35,5.67,6.53,8.5,.06,3.85,2.87,5.41,5.75,6.91-.04,.79,.09,1.55,.4,2.28,2.59,5.85,3.75,11.95,3.24,18.34-3.38,3.62-6.75,7.24-10.13,10.86Z"/><path class="l" d="M83.26,208.32c15.31-7.66,31.75-10.48,48.63-11.03,4.88-.16,11.94-.71,12.28,5.77,.4,7.74-7.11,5.35-11.6,5.49-10.69,.33-21.24,.94-31.12,5.55-4.18,1.21-8.28,2.8-12.54,3.56-9.46,1.69-10.9-1.9-5.64-9.33Z"/><path class="l" d="M300.02,204.72c5.83,4.85,15.76,1.48,19.81,9.88-3.24,4.01-5.73,7.58-12.29,3.65-12.82-7.69-27.19-10.36-42.19-9.71-5.62,.25-11.93,.77-10.72-8.2,12.72-3.37,25.54-.59,38.32-.63,1.27,3.2,2.89,5.9,7.06,5Z"/><path class="l" d="M314.31,242.98c-4.7-.34-9.4-.68-14.09-1.02-8.86-4.8-18.61-1.41-27.82-3.01,3.05-11.02,12.66-3.23,18.44-6.43,8.8,1.3,17.87,1.98,23.47,10.46Z"/><path class="j" d="M77.16,184.11c1.75-10.63,9.97-11.52,18.34-12.2-.02,3.03-.04,6.06-.06,9.1-6.09,1.03-12.18,2.07-18.28,3.1Z"/><path class="d" d="M296.92,168.93c7.66-.1,14.22,2.02,18.36,9.06-7.09-1.04-15.22,.01-18.36-9.06Z"/><path class="d" d="M254.21,168.78c4.08-4.2,8.15-4.18,12.23,0-4.08,4.36-8.15,4.37-12.23,0Z"/><path class="f" d="M102.34,240.62c-.49,2.15-1.81,2.76-3.83,2.06,.35-1.28,.7-2.56,1.05-3.85,.93,.6,1.86,1.19,2.79,1.79Z"/><path class="p" d="M62.06,147.51c-.07-3.41-.7-7.01,2.99-9.2,5.19,5.08,.21,6.85-2.99,9.2Z"/><path class="p" d="M65.17,126.21c-.2-4.08,1.86-6.07,5.83-6.29,.03,3.92-1.92,6.01-5.83,6.29Z"/><path class="i" d="M238.25,403.11c1.25-.8,2.51-1.59,3.76-2.39,0,1.06,0,2.12-.01,3.18-1.25-.26-2.5-.52-3.75-.79Z"/><path class="r" d="M171.81,407.05c2.21-.22,4.41-.44,6.62-.66h-.27c.31,8.77,8.15,8.48,13.13,9.09,11.8,1.46,23.86,1.74,35.43-2.44,3.59,2.2,2.96,5.8,3.07,9.17-1.72,4.02-4.77,6.07-9.15,6.13-15.34,5.49-29.47,3.78-42.09-7.04-4.38-3.76-7.56-8.04-6.75-14.24Z"/><path class="i" d="M226.73,413.04c-11.57,4.18-23.63,3.9-35.43,2.44-4.99-.62-12.82-.32-13.13-9.09,17.97,4.32,35.91,5.38,53.8-.4,.3,1.34,.6,2.69,.9,4.03-2.52,.05-4.81,.55-6.14,3.02Z"/><path class="h" d="M226.73,413.04c1.33-2.47,3.63-2.97,6.14-3.02,4.19,5.38,5.5,10.03-3.07,12.18-.11-3.36,.52-6.97-3.07-9.17Z"/><path class="i" d="M232.25,406.3c1.3-2.63,3.71-3.16,6.31-3.32-.82,3.53-3.34,3.85-6.31,3.32Z"/><path class="j" d="M330.32,261.12c-2.88-1.5-5.69-3.06-5.75-6.91,4.27,.34,6.09,2.73,5.75,6.91Z"/><path class="j" d="M224.34,387.42c3.8-2.07,6.93-1.98,8.62,2.69-3.67,1.65-6.63,1.04-8.62-2.69Z"/><path class="n" d="M272.4,238.95c9.21,1.6,18.96-1.79,27.82,3.01,4.33,6.46,11.1,11.79,9.73,20.91-5.31,1.18-6.37,5.34-7.44,9.88-2.46,10.48-11.21,15.69-19.91,13.76-8.93-1.99-8.37,4.16-11.39,7.66-19.25-9.18-17.31-25.51-14.25-42.22,2.44-7.54,10.22-8.75,15.44-13Zm3.07,21.3c4.3-.43,6.74-2.84,6.92-6.83,.16-3.39-1.83-5.77-5.41-6.06-4.11-.33-6.94,1.58-7.41,5.77-.47,4.24,1.98,6.46,5.9,7.12Z"/><path class="k" d="M211.06,329.27c-.53,4.08-2.99,6.5-6.9,6.53-5.05,.05-9.07-2.81-9.39-7.77-.34-5.11,4.13-6.26,8.43-6.1,4.59,.18,7.33,2.66,7.87,7.33Z"/><path class="e" d="M300.02,204.72c-4.17,.9-5.79-1.8-7.06-5,3.88-.5,6.55,.73,7.06,5Z"/><path class="l" d="M109.41,294.17c3.02-3.5,2.45-9.65,11.39-7.66,8.7,1.93,17.44-3.28,19.92-13.75,1.07-4.53,2.09-8.73,7.45-9.83,6.24,9.96,2.48,22.69-9.49,30.34-9.4,6.01-19.3,7.65-29.27,.91Z"/><path class="k" d="M114.8,260.31c-5.06-.81-7.42-3.13-6.99-7.24,.43-4.2,3.63-5.97,7.42-5.65,3.22,.28,5.37,2.49,5.21,6.06-.19,4.18-3.04,5.82-5.63,6.83Z"/><path class="l" d="M271.21,294.17c3.02-3.5,2.46-9.64,11.39-7.66,8.7,1.93,17.45-3.28,19.91-13.76,1.07-4.54,2.13-8.71,7.44-9.88,7.02,11.81,1.63,21.12-7.11,28.46-9.42,7.91-20.33,10.35-31.63,2.84Z"/><path class="k" d="M275.47,260.24c-3.92-.66-6.37-2.87-5.9-7.12,.47-4.19,3.3-6.11,7.41-5.77,3.58,.29,5.57,2.67,5.41,6.06-.19,3.99-2.63,6.4-6.92,6.83Z"/></g></g></g></svg>